$MeshFormat
4.1 0 8
$EndMeshFormat
$PhysicalNames
6
1 2 "bottom"
1 3 "top"
1 4 "left"
1 5 "right"
1 6 "hole_boundary"
2 1 "domain"
$EndPhysicalNames
$Entities
7 7 1 0
5 0.25 0.2 0 0 
6 0.45 0.75 0 0 
7 0.825 0.45 0 0 
8 0 0 0 0 
9 1 0 0 0 
10 0 1 0 0 
11 1 1 0 0 
5 0.1499999 0.1499999 -1e-07 0.2500001 0.2500001 1e-07 1 6 2 5 -5 
6 0.2499999 0.6499999000000001 -1e-07 0.4500001 0.8500000999999999 1e-07 1 6 2 6 -6 
7 0.5749999 0.3249999 -1e-07 0.8250000999999999 0.5750000999999999 1e-07 1 6 2 7 -7 
8 -9.999999994736442e-08 -1e-07 -1e-07 1.0000001 1e-07 1e-07 1 2 2 8 -9 
9 -1e-07 -9.999999994736442e-08 -1e-07 1e-07 1.0000001 1e-07 1 4 2 10 -8 
10 0.9999999000000001 -9.999999994736442e-08 -1e-07 1.0000001 1.0000001 1e-07 1 5 2 9 -11 
11 -9.999999994736442e-08 0.9999999000000001 -1e-07 1.0000001 1.0000001 1e-07 1 3 2 11 -10 
1 -9.999999994736442e-08 -9.999999994736442e-08 -1e-07 1.0000001 1.0000001 1e-07 1 1 7 8 10 11 9 -5 -7 -6 
$EndEntities
$Nodes
15 1586 1 1586
0 5 0 1
1
0.25 0.2 0
0 6 0 1
2
0.45 0.75 0
0 7 0 1
3
0.825 0.45 0
0 8 0 1
4
0 0 0
0 9 0 1
5
1 0 0
0 10 0 1
6
0 1 0
0 11 0 1
7
1 1 0
1 5 0 13
8
9
10
11
12
13
14
15
16
17
18
19
20
0.2311744900929367 0.2390915741234015 0
0.1888739533021843 0.2487463956090912 0
0.1549515566048791 0.2216941869558779 0
0.1549515566048789 0.1783058130441223 0
0.1888739533021838 0.1512536043909089 0
0.2311744900929365 0.1609084258765983 0
0.245048443395121 0.2216941869558779 0
0.2111260466978158 0.2487463956090912 0
0.1688255099070634 0.2390915741234015 0
0.15 0.2000000000000001 0
0.168825509907063 0.1609084258765988 0
0.2111260466978154 0.1512536043909087 0
0.2450484433951209 0.178305813044122 0
1 6 0 21
21
22
23
24
25
26
27
28
29
30
31
32
33
34
35
36
37
38
39
40
41
0.4341253532831181 0.8040640817455598 0
0.3915415013001887 0.8409631995354518 0
0.3357685161726715 0.8489821441880933 0
0.2845139266054715 0.8255749574354259 0
0.2540507026385503 0.7781732556841432 0
0.2540507026385501 0.7218267443158574 0
0.284513926605471 0.6744250425645746 0
0.3357685161726707 0.6510178558119069 0
0.391541501300188 0.6590368004645479 0
0.4341253532831179 0.6959359182544399 0
0.4459492973614497 0.778173255684143 0
0.4154860733945285 0.8255749574354257 0
0.3642314838273286 0.8489821441880933 0
0.3084584986998114 0.8409631995354518 0
0.2658746467168819 0.8040640817455599 0
0.25 0.7500000000000003 0
0.2658746467168816 0.6959359182544407 0
0.3084584986998107 0.6590368004645485 0
0.3642314838273278 0.6510178558119066 0
0.4154860733945281 0.6744250425645738 0
0.4459492973614496 0.7218267443158568 0
1 7 0 27
42
43
44
45
46
47
48
49
50
51
52
53
54
55
56
57
58
59
60
61
62
63
64
65
66
67
68
0.8126211084878024 0.5042354673896947 0
0.7779362252323418 0.5477289353085036 0
0.7278151167445397 0.5718659890227279 0
0.6721848832554612 0.5718659890227281 0
0.6220637747676588 0.5477289353085042 0
0.587378891512198 0.5042354673896957 0
0.575 0.4500000000000012 0
0.5873788915121969 0.3957645326103065 0
0.6220637747676572 0.3522710646914972 0
0.6721848832554596 0.3281340109772723 0
0.7278151167445384 0.3281340109772719 0
0.7779362252323412 0.3522710646914959 0
0.8126211084878022 0.3957645326103049 0
0.8218659890227279 0.4778151167445392 0
0.7977289353085038 0.5279362252323416 0
0.754235467389695 0.5626211084878022 0
0.7000000000000005 0.575 0
0.6457645326103058 0.5626211084878027 0
0.6022710646914968 0.5279362252323424 0
0.5781340109772722 0.4778151167445404 0
0.5781340109772717 0.422184883255462 0
0.6022710646914953 0.3720637747676594 0
0.645764532610304 0.3373788915121982 0
0.699999999999999 0.325 0
0.754235467389694 0.3373788915121974 0
0.7977289353085034 0.372063774767658 0
0.8218659890227279 0.4221848832554604 0
1 8 0 33
69
70
71
72
73
74
75
76
77
78
79
80
81
82
83
84
85
86
87
88
89
90
91
92
93
94
95
96
97
98
99
100
101
0.05882352941176477 0 0
0.1176470588235296 0 0
0.1764705882352943 0 0
0.235294117647059 0 0
0.2941176470588239 0 0
0.3529411764705889 0 0
0.4117647058823538 0 0
0.4705882352941187 0 0
0.5294117647058832 0 0
0.5882352941176479 0 0
0.6470588235294124 0 0
0.7058823529411768 0 0
0.7647058823529413 0 0
0.823529411764706 0 0
0.8823529411764703 0 0
0.9411764705882349 0 0
0.02941176470588239 0 0
0.08823529411764719 0 0
0.1470588235294119 0 0
0.2058823529411767 0 0
0.2647058823529415 0 0
0.3235294117647064 0 0
0.3823529411764713 0 0
0.4411764705882363 0 0
0.500000000000001 0 0
0.5588235294117656 0 0
0.6176470588235301 0 0
0.6764705882352946 0 0
0.7352941176470591 0 0
0.7941176470588236 0 0
0.8529411764705882 0 0
0.9117647058823526 0 0
0.9705882352941175 0 0
1 9 0 33
102
103
104
105
106
107
108
109
110
111
112
113
114
115
116
117
118
119
120
121
122
123
124
125
126
127
128
129
130
131
132
133
134
0 0.9411764705882353 0
0 0.8823529411764705 0
0 0.8235294117647057 0
0 0.7647058823529409 0
0 0.7058823529411761 0
0 0.6470588235294111 0
0 0.5882352941176462 0
0 0.5294117647058814 0
0 0.4705882352941168 0
0 0.4117647058823521 0
0 0.3529411764705876 0
0 0.2941176470588232 0
0 0.2352941176470587 0
0 0.176470588235294 0
0 0.1176470588235297 0
0 0.05882352941176505 0
0 0.9705882352941176 0
0 0.9117647058823528 0
0 0.8529411764705881 0
0 0.7941176470588234 0
0 0.7352941176470584 0
0 0.6764705882352936 0
0 0.6176470588235287 0
0 0.5588235294117637 0
0 0.499999999999999 0
0 0.4411764705882344 0
0 0.3823529411764699 0
0 0.3235294117647054 0
0 0.2647058823529409 0
0 0.2058823529411764 0
0 0.1470588235294118 0
0 0.08823529411764741 0
0 0.02941176470588247 0
1 10 0 33
135
136
137
138
139
140
141
142
143
144
145
146
147
148
149
150
151
152
153
154
155
156
157
158
159
160
161
162
163
164
165
166
167
1 0.05882352941176477 0
1 0.1176470588235296 0
1 0.1764705882352943 0
1 0.235294117647059 0
1 0.2941176470588239 0
1 0.3529411764705889 0
1 0.4117647058823538 0
1 0.4705882352941187 0
1 0.5294117647058832 0
1 0.5882352941176479 0
1 0.6470588235294124 0
1 0.7058823529411768 0
1 0.7647058823529413 0
1 0.823529411764706 0
1 0.8823529411764703 0
1 0.9411764705882349 0
1 0.02941176470588239 0
1 0.08823529411764719 0
1 0.1470588235294119 0
1 0.2058823529411767 0
1 0.2647058823529415 0
1 0.3235294117647064 0
1 0.3823529411764713 0
1 0.4411764705882363 0
1 0.500000000000001 0
1 0.5588235294117656 0
1 0.6176470588235301 0
1 0.6764705882352946 0
1 0.7352941176470591 0
1 0.7941176470588236 0
1 0.8529411764705882 0
1 0.9117647058823526 0
1 0.9705882352941175 0
1 11 0 33
168
169
170
171
172
173
174
175
176
177
178
179
180
181
182
183
184
185
186
187
188
189
190
191
192
193
194
195
196
197
198
199
200
0.9411764705882353 1 0
0.8823529411764705 1 0
0.8235294117647057 1 0
0.7647058823529409 1 0
0.7058823529411761 1 0
0.6470588235294111 1 0
0.5882352941176462 1 0
0.5294117647058814 1 0
0.4705882352941168 1 0
0.4117647058823521 1 0
0.3529411764705876 1 0
0.2941176470588232 1 0
0.2352941176470587 1 0
0.176470588235294 1 0
0.1176470588235297 1 0
0.05882352941176505 1 0
0.9705882352941176 1 0
0.9117647058823528 1 0
0.8529411764705881 1 0
0.7941176470588234 1 0
0.7352941176470584 1 0
0.6764705882352936 1 0
0.6176470588235287 1 0
0.5588235294117637 1 0
0.499999999999999 1 0
0.4411764705882344 1 0
0.3823529411764699 1 0
0.3235294117647054 1 0
0.2647058823529409 1 0
0.2058823529411764 1 0
0.1470588235294118 1 0
0.08823529411764741 1 0
0.02941176470588247 1 0
2 1 0 1386
201
202
203
204
205
206
207
208
209
210
211
212
213
214
215
216
217
218
219
220
221
222
223
224
225
226
227
228
229
230
231
232
233
234
235
236
237
238
239
240
241
242
243
244
245
246
247
248
249
250
251
252
253
254
255
256
257
258
259
260
261
262
263
264
265
266
267
268
269
270
271
272
273
274
275
276
277
278
279
280
281
282
283
284
285
286
287
288
289
290
291
292
293
294
295
296
297
298
299
300
301
302
303
304
305
306
307
308
309
310
311
312
313
314
315
316
317
318
319
320
321
322
323
324
325
326
327
328
329
330
331
332
333
334
335
336
337
338
339
340
341
342
343
344
345
346
347
348
349
350
351
352
353
354
355
356
357
358
359
360
361
362
363
364
365
366
367
368
369
370
371
372
373
374
375
376
377
378
379
380
381
382
383
384
385
386
387
388
389
390
391
392
393
394
395
396
397
398
399
400
401
402
403
404
405
406
407
408
409
410
411
412
413
414
415
416
417
418
419
420
421
422
423
424
425
426
427
428
429
430
431
432
433
434
435
436
437
438
439
440
441
442
443
444
445
446
447
448
449
450
451
452
453
454
455
456
457
458
459
460
461
462
463
464
465
466
467
468
469
470
471
472
473
474
475
476
477
478
479
480
481
482
483
484
485
486
487
488
489
490
491
492
493
494
495
496
497
498
499
500
501
502
503
504
505
506
507
508
509
510
511
512
513
514
515
516
517
518
519
520
521
522
523
524
525
526
527
528
529
530
531
532
533
534
535
536
537
538
539
540
541
542
543
544
545
546
547
548
549
550
551
552
553
554
555
556
557
558
559
560
561
562
563
564
565
566
567
568
569
570
571
572
573
574
575
576
577
578
579
580
581
582
583
584
585
586
587
588
589
590
591
592
593
594
595
596
597
598
599
600
601
602
603
604
605
606
607
608
609
610
611
612
613
614
615
616
617
618
619
620
621
622
623
624
625
626
627
628
629
630
631
632
633
634
635
636
637
638
639
640
641
642
643
644
645
646
647
648
649
650
651
652
653
654
655
656
657
658
659
660
661
662
663
664
665
666
667
668
669
670
671
672
673
674
675
676
677
678
679
680
681
682
683
684
685
686
687
688
689
690
691
692
693
694
695
696
697
698
699
700
701
702
703
704
705
706
707
708
709
710
711
712
713
714
715
716
717
718
719
720
721
722
723
724
725
726
727
728
729
730
731
732
733
734
735
736
737
738
739
740
741
742
743
744
745
746
747
748
749
750
751
752
753
754
755
756
757
758
759
760
761
762
763
764
765
766
767
768
769
770
771
772
773
774
775
776
777
778
779
780
781
782
783
784
785
786
787
788
789
790
791
792
793
794
795
796
797
798
799
800
801
802
803
804
805
806
807
808
809
810
811
812
813
814
815
816
817
818
819
820
821
822
823
824
825
826
827
828
829
830
831
832
833
834
835
836
837
838
839
840
841
842
843
844
845
846
847
848
849
850
851
852
853
854
855
856
857
858
859
860
861
862
863
864
865
866
867
868
869
870
871
872
873
874
875
876
877
878
879
880
881
882
883
884
885
886
887
888
889
890
891
892
893
894
895
896
897
898
899
900
901
902
903
904
905
906
907
908
909
910
911
912
913
914
915
916
917
918
919
920
921
922
923
924
925
926
927
928
929
930
931
932
933
934
935
936
937
938
939
940
941
942
943
944
945
946
947
948
949
950
951
952
953
954
955
956
957
958
959
960
961
962
963
964
965
966
967
968
969
970
971
972
973
974
975
976
977
978
979
980
981
982
983
984
985
986
987
988
989
990
991
992
993
994
995
996
997
998
999
1000
1001
1002
1003
1004
1005
1006
1007
1008
1009
1010
1011
1012
1013
1014
1015
1016
1017
1018
1019
1020
1021
1022
1023
1024
1025
1026
1027
1028
1029
1030
1031
1032
1033
1034
1035
1036
1037
1038
1039
1040
1041
1042
1043
1044
1045
1046
1047
1048
1049
1050
1051
1052
1053
1054
1055
1056
1057
1058
1059
1060
1061
1062
1063
1064
1065
1066
1067
1068
1069
1070
1071
1072
1073
1074
1075
1076
1077
1078
1079
1080
1081
1082
1083
1084
1085
1086
1087
1088
1089
1090
1091
1092
1093
1094
1095
1096
1097
1098
1099
1100
1101
1102
1103
1104
1105
1106
1107
1108
1109
1110
1111
1112
1113
1114
1115
1116
1117
1118
1119
1120
1121
1122
1123
1124
1125
1126
1127
1128
1129
1130
1131
1132
1133
1134
1135
1136
1137
1138
1139
1140
1141
1142
1143
1144
1145
1146
1147
1148
1149
1150
1151
1152
1153
1154
1155
1156
1157
1158
1159
1160
1161
1162
1163
1164
1165
1166
1167
1168
1169
1170
1171
1172
1173
1174
1175
1176
1177
1178
1179
1180
1181
1182
1183
1184
1185
1186
1187
1188
1189
1190
1191
1192
1193
1194
1195
1196
1197
1198
1199
1200
1201
1202
1203
1204
1205
1206
1207
1208
1209
1210
1211
1212
1213
1214
1215
1216
1217
1218
1219
1220
1221
1222
1223
1224
1225
1226
1227
1228
1229
1230
1231
1232
1233
1234
1235
1236
1237
1238
1239
1240
1241
1242
1243
1244
1245
1246
1247
1248
1249
1250
1251
1252
1253
1254
1255
1256
1257
1258
1259
1260
1261
1262
1263
1264
1265
1266
1267
1268
1269
1270
1271
1272
1273
1274
1275
1276
1277
1278
1279
1280
1281
1282
1283
1284
1285
1286
1287
1288
1289
1290
1291
1292
1293
1294
1295
1296
1297
1298
1299
1300
1301
1302
1303
1304
1305
1306
1307
1308
1309
1310
1311
1312
1313
1314
1315
1316
1317
1318
1319
1320
1321
1322
1323
1324
1325
1326
1327
1328
1329
1330
1331
1332
1333
1334
1335
1336
1337
1338
1339
1340
1341
1342
1343
1344
1345
1346
1347
1348
1349
1350
1351
1352
1353
1354
1355
1356
1357
1358
1359
1360
1361
1362
1363
1364
1365
1366
1367
1368
1369
1370
1371
1372
1373
1374
1375
1376
1377
1378
1379
1380
1381
1382
1383
1384
1385
1386
1387
1388
1389
1390
1391
1392
1393
1394
1395
1396
1397
1398
1399
1400
1401
1402
1403
1404
1405
1406
1407
1408
1409
1410
1411
1412
1413
1414
1415
1416
1417
1418
1419
1420
1421
1422
1423
1424
1425
1426
1427
1428
1429
1430
1431
1432
1433
1434
1435
1436
1437
1438
1439
1440
1441
1442
1443
1444
1445
1446
1447
1448
1449
1450
1451
1452
1453
1454
1455
1456
1457
1458
1459
1460
1461
1462
1463
1464
1465
1466
1467
1468
1469
1470
1471
1472
1473
1474
1475
1476
1477
1478
1479
1480
1481
1482
1483
1484
1485
1486
1487
1488
1489
1490
1491
1492
1493
1494
1495
1496
1497
1498
1499
1500
1501
1502
1503
1504
1505
1506
1507
1508
1509
1510
1511
1512
1513
1514
1515
1516
1517
1518
1519
1520
1521
1522
1523
1524
1525
1526
1527
1528
1529
1530
1531
1532
1533
1534
1535
1536
1537
1538
1539
1540
1541
1542
1543
1544
1545
1546
1547
1548
1549
1550
1551
1552
1553
1554
1555
1556
1557
1558
1559
1560
1561
1562
1563
1564
1565
1566
1567
1568
1569
1570
1571
1572
1573
1574
1575
1576
1577
1578
1579
1580
1581
1582
1583
1584
1585
1586
0.2167097695080538 0.2808448877321705 0
0.2751340613418643 0.2365402695727659 0
0.291618319558287 0.6168474637645214 0
0.699427794154557 0.6173302355996301 0
0.5342201532105004 0.4121618317848997 0
0.7951995920218504 0.9473311907033974 0
0.500000000000001 0.05094267081084919 0
0.617523831518639 0.9494626905582489 0
0.04983162460676821 0.4438374541717201 0
0.7737789726774673 0.2967963846181109 0
0.9524067591857519 0.7323361093581857 0
0.62622102732253 0.2967963846181122 0
0.2946015275420244 0.196103939271868 0
0.3202190313176126 0.2344087635036539 0
0.6781120132215465 0.0495246709044127 0
0.04969463528077089 0.558824411983846 0
0.7941176470588236 0.05094267081084908 0
0.340656022185242 0.191494158004757 0
0.3676790164167283 0.2309243766399103 0
0.3461135809912672 0.2743370540191945 0
0.4889205099424183 0.7091958480301521 0
0.3950161720395783 0.2714092335456974 0
0.3728615387508251 0.3151581638015153 0
0.1758195054121636 0.2911554497589913 0
0.2044112248538261 0.3237618186406345 0
0.4172141884719438 0.227607892764456 0
0.05263271106221423 0.8454345071761897 0
0.9490573291891506 0.2058823529411766 0
0.04811333847356941 0.6743283735780221 0
0.4456295046349097 0.2689607444028713 0
0.4655364665393076 0.221853176853793 0
0.9441576373217226 0.8564739357239626 0
0.9490573291891509 0.6176470588235301 0
0.3397396095972786 0.5933497587377088 0
0.2959281252893567 0.5634268561442762 0
0.3453892801415509 0.5410977650537788 0
0.3019304021115534 0.510120486607192 0
0.2507466036259745 0.5321617695048479 0
0.3501096521662257 0.4890764569221063 0
0.3938647031444064 0.5186971996255691 0
0.3072183162982284 0.4574458337205653 0
0.4716575320761676 0.648507407734385 0
0.2282312367227863 0.6717439676036876 0
0.5069630296087685 0.7627257724876174 0
0.5441655232123337 0.7223788127238244 0
0.5601076325061396 0.7766556761896967 0
0.2286332250893228 0.8261907060075908 0
0.3137665076125286 0.1525724677426917 0
0.361861009188132 0.1471713373113667 0
0.1976985329711728 0.7836627914216795 0
0.1609693232760393 0.3343623315523023 0
0.1929506085895243 0.3686701574041817 0
0.3984637671539788 0.4694360447108859 0
0.5985759474443632 0.7373837363404796 0
0.6148153984134977 0.7905290948025195 0
0.6536662036642079 0.7510749402367762 0
0.6700383617120482 0.8042873097857022 0
0.7087719869516743 0.7660175018786526 0
0.1464591894021167 0.1319294256059442 0
0.5010890055938667 0.9497396607725016 0
0.9563704878714383 0.3218060555552145 0
0.2449414300190764 0.3537022875283826 0
0.1473448596002468 0.9490815306017976 0
0.4358444661622245 0.4961564047570346 0
0.7258860466226653 0.8168588539834036 0
0.7652986410065901 0.7760057853135793 0
0.1284637817706539 0.2962158559743588 0
0.5801576823708754 0.6848107196044606 0
0.5467986541288548 0.3585734821962219 0
0.4988282176794213 0.3643101325162232 0
0.5604929603021307 0.5454774352329406 0
0.7723602494558333 0.6023768991483333 0
0.6999999999999986 0.27995681555727 0
0.6522885563112373 0.240962506962172 0
0.747728478575499 0.2408878722468294 0
0.8050182034677398 0.2506133189701671 0
0.7828155499219562 0.1961030538856103 0
0.8643713862764081 0.4882468225812576 0
0.5954711358192688 0.2476610305176127 0
0.6176455593235299 0.1961759113796752 0
0.1215355046568065 0.1983203489051353 0
0.218385542373171 0.1194476756792437 0
0.5276676619626947 0.8150330280400963 0
0.8324112541257831 0.5557764990781486 0
0.8337091784503851 0.6176660065582471 0
0.8652291522013007 0.4179706006757151 0
0.781939626294499 0.8298304219047536 0
0.8207372455597435 0.792544226564595 0
0.1133087727203186 0.3491420101062385 0
0.9094662132086189 0.05353094739911468 0
0.2533144943569637 0.8662291712210435 0
0.8250075407037221 0.3135534739692067 0
0.1723907096584482 0.8266293723808738 0
0.1405895496356512 0.7832668351528997 0
0.2257809566373867 0.4039182407802182 0
0.1778556551500933 0.4157178163162452 0
0.7922745277265035 0.6579630760845327 0
0.673135990238811 0.1919085244747042 0
0.04988000325544117 0.08834494383469266 0
0.847462241203953 0.676497190869736 0
0.8376028625418542 0.8452100575158815 0
0.4466772669377226 0.5452259562628482 0
0.3306689064733613 0.103259153948343 0
0.3833115124061882 0.1010576556257889 0
0.6857457265966147 0.856102238598664 0
0.8596778676730588 0.2686040971277044 0
0.495252247021043 0.2627125368069947 0
0.324253111154934 0.3170749872537307 0
0.3504422740110354 0.3584516328767923 0
0.4126934931676296 0.1426709539387456 0
0.3705996185171589 0.893273493827094 0
0.3995299677417946 0.3566797879554495 0
0.4521070212504426 0.8519004197742488 0
0.5623079104527143 0.2025689426602597 0
0.5839076875935413 0.1515479293105205 0
0.5224788603418861 0.1551399914333029 0
0.8391140396423458 0.203821929157351 0
0.9140141979145944 0.9541970458773275 0
0.8167657065297658 0.151018837652425 0
0.754138228473024 0.140573683874671 0
0.8728154828276977 0.1583720453334795 0
0.8898151017605122 0.5467103775559977 0
0.213563249391695 0.4498791348027602 0
0.1621867567048829 0.4644367450077125 0
0.5360151022867292 0.4863377141585554 0
0.1669147419850548 0.7324641865438233 0
0.8728814015619903 0.8051565913608254 0
0.04620093921161439 0.259327351513911 0
0.264699993340981 0.04798478449939414 0
0.1508473861911043 0.04713847338075594 0
0.9111961613033662 0.4569541403472034 0
0.6332448560505567 0.604521572293406 0
0.2731171996895038 0.3925114313233116 0
0.4470801682928785 0.4428976269285324 0
0.6933913984548221 0.7077998879054341 0
0.1314649669610232 0.4246044976196497 0
0.1033652079944529 0.471865345912031 0
0.1496935045429255 0.5160585291641473 0
0.1116346409345165 0.7357852547813246 0
0.1316961959791735 0.6833474642834356 0
0.8505704822863549 0.09983304963586126 0
0.5074384063833012 0.5427327760429339 0
0.5341148018375245 0.5883384204996952 0
0.4380680947610657 0.09345327669166098 0
0.5503690773035428 0.1062304234629947 0
0.6039795899790238 0.09945869899656617 0
0.8512305387379535 0.7420459403485493 0
0.2816346432440974 0.1123461419135617 0
0.9118899456166565 0.4023196911820114 0
0.3767514207520278 0.3977378539926714 0
0.08444790073837022 0.7879813883282244 0
0.3235960681959103 0.9446967348959078 0
0.6572502085774787 0.6579922096665367 0
0.4720124300434207 0.3119612792766626 0
0.1186243528653192 0.2453601750479149 0
0.8769184513461767 0.3217038908299232 0
0.7979213255977392 0.7113280933492411 0
0.5699205778262724 0.2986560120130407 0
0.4674241430365249 0.1403028577889146 0
0.2068388473075456 0.04439199354751139 0
0.3267256009230903 0.4034662072650975 0
0.3247036972078262 0.04966287909739658 0
0.8940243674703839 0.6353404965879283 0
0.9013586367825688 0.704414100546343 0
0.7929985037355655 0.883832085912144 0
0.8477657748146713 0.8996285079817117 0
0.7530243863130803 0.9127515508082997 0
0.9547863234105788 0.4932783814460464 0
0.2597603080884821 0.4788815950490004 0
0.0482571260637405 0.1442132447460882 0
0.04521993291442133 0.1999478970258358 0
0.09691926395250994 0.1175977754418988 0
0.04608831353694776 0.3139766384087507 0
0.06104480053860573 0.3752117554697957 0
0.04970826019334712 0.5006591731600676 0
0.7471327908028311 0.6909728665078743 0
0.300004445573631 0.2757924936772361 0
0.2769710857265751 0.3177294179869081 0
0.9090344487293853 0.1209893020570276 0
0.2473079351110356 0.5838633877528954 0
0.2000564595992603 0.5525534409211036 0
0.1998337891085768 0.6148352970301922 0
0.1519582155953756 0.5735918827283921 0
0.951044092529578 0.2611530961357622 0
0.05210220592775949 0.7358925523731 0
0.8935849807458427 0.2232161836348254 0
0.04846421554305325 0.6172482160542991 0
0.5590107307351994 0.949343957196499 0
0.5859878302860257 0.8903013395665391 0
0.5278802490855107 0.9017436077093515 0
0.7331344268522371 0.04916721404160168 0
0.7060494958821431 0.1014293448251098 0
0.5263525972576368 0.6715165653006969 0
0.9462862979602573 0.5542836956834145 0
0.2603801585681413 0.9517494017005524 0
0.2031754960266493 0.9508351507186692 0
0.1741509827380553 0.9060499966535249 0
0.116158878369448 0.9078870664916068 0
0.08873438150976043 0.952245624547687 0
0.4456213882224391 0.9507713370257294 0
0.9491615188854299 0.7939371852112431 0
0.6750033104946775 0.9528722857843588 0
0.09303218790444506 0.05568390011590207 0
0.3891112573461234 0.9487415268027813 0
0.6302859041636811 0.845187252347992 0
0.1144380323968222 0.8318891924135368 0
0.577037708472483 0.8293896441530494 0
0.1444828545939186 0.6288049142641382 0
0.3896631753041059 0.5702886605216611 0
0.4329372029644247 0.6039440021153892 0
0.5588235294117656 0.04938005697641729 0
0.6475582916903829 0.8999045483439079 0
0.6394916642299235 0.1479223738295906 0
0.4222440950001735 0.3131751029863808 0
0.88649362234878 0.8556499656224474 0
0.9514786686496542 0.1487947704533714 0
0.09745067225513132 0.5924521665840246 0
0.3898786525444371 0.1873698291034612 0
0.7282180829444884 0.1897574402469935 0
0.1816039597091152 0.09398804674619349 0
0.2060011469922034 0.498995202408262 0
0.4976408928328689 0.4504529930093079 0
0.3823529411764713 0.04625338208361901 0
0.05581519018800363 0.9076663771676492 0
0.8520073390989948 0.04086133356916499 0
0.9519997958678288 0.9139349624972199 0
0.4264509979856331 0.3981059815326126 0
0.1470886072084516 0.379143667720999 0
0.5569976479970241 0.6360277607251432 0
0.3016161469332919 0.357213482445743 0
0.09788546880474547 0.5325642680642089 0
0.4484149567905124 0.3548814089360888 0
0.6188140671582506 0.04684792419364403 0
0.9547181442340212 0.6764705882352946 0
0.8556846482732305 0.9533758592270302 0
0.4767661690765997 0.9015329893628024 0
0.09375243149902823 0.6483168761813707 0
0.5440651963053662 0.2521647897635708 0
0.4405547954228021 0.03812986591722578 0
0.5211462205007297 0.308063038762119 0
0.4388158998765206 0.1832261230810623 0
0.3604922625407144 0.4408907365237592 0
0.483378124743217 0.5935496561963858 0
0.7933378271994194 0.1045786463296037 0
0.3205295715127441 0.8949576927532734 0
0.7424137889060624 0.6480638600890659 0
0.256742244219469 0.2767068884738366 0
0.1337723974318582 0.08926752425813889 0
0.9551375463092389 0.08978411156490151 0
0.08711743075082196 0.1737738119240516 0
0.4968990392613052 0.1070247192154141 0
0.2597108634962263 0.434333952783545 0
0.2723219303155607 0.1613028432020043 0
0.5132181988145406 0.2042258516133389 0
0.8551971106085996 0.3648457429981695 0
0.7395893472734221 0.8675408103375597 0
0.15334662999104 0.2606344126692468 0
0.1800225934962947 0.6707899203730483 0
0.6999998273174937 0.2298126003205566 0
0.6580259684536274 0.09910795403019745 0
0.8730960422452979 0.5887633302532987 0
0.6343066886563768 0.7017735286345945 0
0.9072732086860325 0.7667862985984578 0
0.4851546970845954 0.4976467060551096 0
0.106896215610387 0.3897722620236013 0
0.08709686630937241 0.2769529305981909 0
0.6994879242983554 0.1483328502581356 0
0.9585186626919416 0.4376287648499967 0
0.9072517573710372 0.2866022199774736 0
0.5011302511023418 0.8548439910675599 0
0.734078897306891 0.9588087848488999 0
0.7035786030312533 0.9073889910339421 0
0.2107437586324301 0.7094965493156753 0
0.2467082151650124 0.6307949257347671 0
0.4235826147624825 0.8995334755346673 0
0.2392392427836305 0.08541567573500669 0
0.3822353521666906 0.6169863598830772 0
0.2294588590951528 0.9085581379322243 0
0.6088770026910513 0.6447965370130833 0
0.03672697915520318 0.7941176470588234 0
0.2404596130737529 0.310242687750537 0
0.04306181220993394 0.0430618122099341 0
0.4789985817359439 0.8002224275474081 0
0.4764005450662402 0.40844689061872 0
0.8999707419326128 0.9048476674731204 0
0.7060160260801643 0.6643839682761182 0
0.04335506806571171 0.9566449319342886 0
0.9572594078087057 0.3794662234947824 0
0.08429917111805935 0.2256137525025066 0
0.956938187790066 0.9569381877900658 0
0.9573637768819889 0.0426362231180108 0
0.9144771821405174 0.1767725415392396 0
0.09104545521822327 0.6941923167003838 0
0.913674652825291 0.5884055310687746 0
0.7499391696567911 0.09310659770923846 0
0.2495441078032756 0.129082414194408 0
0.2022276642182263 0.8664180152002326 0
0.4293446374898928 0.6458221942871731 0
0.481494713721756 0.1809496001540823 0
0.5849329696192028 0.3387140896759994 0
0.5850402655648954 0.5941549474098604 0
0.908054076059558 0.5036729327803982 0
0.9166003969625012 0.8228278647656004 0
0.1448652599483151 0.8677994568998069 0
0.514500140782314 0.6275879620912612 0
0.5433618235028594 0.8586314739714529 0
0.2932714149605258 0.422206729105647 0
0.08948726874144919 0.4219046752482576 0
0.7484370168249919 0.7368476972490373 0
0.9146043098916721 0.3488016057910657 0
0.3552592643159618 0.07505826768878687 0
0.1235938393949568 0.1603589445176911 0
0.4032066071516703 0.428606748220125 0
0.08799449615292959 0.3178697542092021 0
0.2936752688352085 0.07599123500180849 0
0.8002730222989163 0.7539691505164887 0
0.2805201593381626 0.9087495375237374 0
0.09337464031096715 0.8700721909992155 0
0.2205159313060395 0.7478348551472027 0
0.296521891785917 0.8662388665820303 0
0.07451964834576763 0.3465407548394989 0
0.1006516344366241 0.3335058821577203 0
0.08717678662946216 0.3621768827880171 0
0.533965683342716 0.5441051056379372 0
0.5217267543350151 0.5145352451007446 0
0.54825403129443 0.515907574695748 0
0.516827997559799 0.4683953535839316 0
0.5159305230216846 0.4313074123971038 0
0.5351176277486148 0.4492497729717275 0
0.6783390013660178 0.6376612226330833 0
0.6452475323140177 0.6312568909799713 0
0.6663363251025568 0.610925903946518 0
0.6392547918168836 0.2688794457901421 0
0.676144278155618 0.260459661259721 0
0.6631105136612643 0.2883766000876911 0
0.8744104389932609 0.6904556457080395 0
0.8762945877602611 0.7232300204474462 0
0.8493463899709532 0.7092715656091426 0
0.7238642392877488 0.2604223439020497 0
0.7607537256264831 0.2688421284324702 0
0.736889486338733 0.2883766000876904 0
0.833060216288084 0.5867212528181979 0
0.8030347139531092 0.6100214528532902 0
0.8023857517908082 0.579076699113241 0
0.5555075511433646 0.4681688570792782 0
0.5546100766052502 0.4310809158924505 0
0.8770932440184601 0.5174786000686277 0
0.8611131779431476 0.5512434383170732 0
0.8483913202010955 0.5220116608297032 0
0.4965793252720752 0.3100121590193908 0
0.5099872190900755 0.3361865856391711 0
0.485420323861421 0.3381357058964429 0
0.9518877367115861 0.6470588235294124 0
0.9243712558522026 0.6559055424116116 0
0.9215408483297673 0.6264937777057292 0
0.8882126567523334 0.4374623705114593 0
0.8877837737898872 0.4726004814642305 0
0.8648002692388543 0.4531087116284864 0
0.4984495196306531 0.07898369501313163 0
0.4674835670111854 0.1002389979535375 0
0.4690340473805333 0.07219797375125508 0
0.465915982011159 0.5214363311589789 0
0.4962965517339483 0.5201897410490217 0
0.4770578366605119 0.543979366152891 0
0.9092503309690021 0.08726012472807115 0
0.8798024655078701 0.1104111758464444 0
0.8800183477474869 0.07668199851748797 0
0.5616969968994636 0.4952865907741255 0
0.5739359259071644 0.5248564513113182 0
0.8323480355703993 0.2596087080489358 0
0.8423427041883904 0.2910787855484556 0
0.8150128720857309 0.2820833964696869 0
0.8512889106926749 0.07034719160251313 0
0.8807367761538069 0.04719614048413984 0
0.4393114450919339 0.06579157130444335 0
0.4702773977114015 0.04453626836403746 0
0.9280383905082951 0.6904423443908189 0
0.8976915021264764 0.6698772985671357 0
0.1101024941653528 0.3694571360649199 0
0.08397050807449635 0.3824920087466985 0
0.652714869653009 0.588193780658067 0
0.6858063387050091 0.5945981123111791 0
0.7500876831001865 0.5871214440855306 0
0.7358940218051951 0.6098535673739817 0
0.7136214554495484 0.594598112311179 0
0.6860924416277291 0.3040454132672711 0
0.6492029552889949 0.3124651977976922 0
0.8051737396790624 0.5517527171933261 0
0.7751482373440876 0.5750529172284184 0
0.7139075583722685 0.3040454132672709 0
0.7507970447110028 0.3124651977976914 0
0.164031574555616 0.1129587361760688 0
0.1852389565056496 0.1226208255685513 0
0.1676665713521502 0.1415915149984266 0
0.8245759321678463 0.7266870168488951 0
0.822691783400846 0.6939126421094886 0
0.8225161813067927 0.5300059832339217 0
0.8384962473821053 0.4962411449854762 0
0.8451145761006503 0.4339853003378575 0
0.8446856931382041 0.4691234112906288 0
0.7573870191809479 0.6252203796186996 0
0.7209207915303097 0.632697047844348 0
0.5339724373147923 0.3333182604791705 0
0.5228134359041381 0.3614418073562226 0
0.9043159227343007 0.7356001995724004 0
0.879251873711993 0.7544161194735035 0
0.8203821392751184 0.8917302969469278 0
0.8214826834182609 0.9234798493425546 0
0.794099047878708 0.9155816383077708 0
0.7993932566905947 0.3051749292936588 0
0.7893985880726035 0.273704851794139 0
0.4581576638538209 0.5987468291558875 0
0.4775178284096923 0.6210285319653854 0
0.4522973675202962 0.6262257049248872 0
0.2283738753090889 0.515578485956555 0
0.2328807275403427 0.4889383987286312 0
0.2552534558572283 0.5055216822769242 0
0.8230624930789092 0.04590200219000706 0
0.8223440646725892 0.0753878602233552 0
0.8219541547428871 0.1022058479827325 0
0.7937277371291215 0.0777606585702264 0
0.1999947510411432 0.1067178612127186 0
0.2036297478376775 0.1353506400350764 0
0.3828322267913298 0.07365551885470401 0
0.4102105179687685 0.06985332938764 0
0.4106898035836269 0.09725546615872493 0
0.09944296656759621 0.8099352903708805 0
0.08353537172951819 0.8386618497948632 0
0.06854030590029225 0.8167079477522071 0
0.8165666679204704 0.3585584038448327 0
0.8339091095482009 0.3803051378042372 0
0.07653673409389999 0.4862622595360493 0
0.04976994240005767 0.4722483136658939 0
0.07659841630061054 0.4578514000418756 0
0.2892936163299335 0.3374714502163255 0
0.2732787884761841 0.3554578849870628 0
0.2609562578728257 0.3357158527576454 0
0.0670414048449387 0.3159231963089764 0
0.05356655703777674 0.3445941969392732 0
0.8401023256561608 0.3391996084836881 0
0.8014718829680316 0.3329122693303513 0
0.4075620580313356 0.8702483375350596 0
0.3970911166398208 0.8964034846808806 0
0.3810705599086738 0.8671183466812729 0
0.1134022926681516 0.07247571218702048 0
0.1153458306921841 0.1034326498500188 0
0.09497572592847747 0.08664083777890041 0
0.8517252115439509 0.926502183604371 0
0.8254421201475405 0.9503535249652139 0
0.8220661215550428 0.2272176240637591 0
0.8493959536577023 0.2362130131425277 0
0.4604995816234099 0.4969015554060721 0
0.4412608665499735 0.5206911805099413 0
0.8849007102501358 0.3568236743946176 0
0.9132471277541643 0.3755606484865385 0
0.883543528112628 0.3835827170900905 0
0.4114538682996367 0.04219162400042242 0
0.8602131314049501 0.3914081718369423 0
0.8885595489089786 0.4101451459288633 0
0.4913977949587321 0.4740498495322087 0
0.466117432688737 0.470272166491821 0
0.4723605305628737 0.4466753099689201 0
0.9298399839358922 0.7495612039783217 0
0.9268826979841603 0.7183751049522644 0
0.4414623172275515 0.4695270158427834 0
0.5294117647058832 0.05016136389363324 0
0.5545963033576542 0.07780524021970597 0
0.5251845386517718 0.07858654713692192 0
0.5815127693792543 0.8598454918597943 0
0.6036618063180821 0.8372884482505207 0
0.6081368672248534 0.8677442959572655 0
0.07145609557994315 0.07201442197529739 0
0.07339963360397556 0.1029713596382957 0
0.5236340582824239 0.1066275713392044 0
0.8663495101940941 0.2135190563960881 0
0.8766314242094507 0.2459101403812649 0
0.3798554379316412 0.9210075103149377 0
0.3563536627710169 0.9467191308493446 0
0.3470978433565347 0.9189851143615009 0
0.2232710021367946 0.6228151113824797 0
0.2374697259438994 0.6512694466692274 0
0.2140325129156816 0.6432896323169399 0
0.1249218422000605 0.5530780753963005 0
0.1237894866738355 0.5243113986141781 0
0.1508258600691506 0.5448252059462697 0
0.09766807052993842 0.5625082173241167 0
0.1247044439252535 0.5830220246562083 0
0.4989391327627655 0.6105688091438235 0
0.4930788364292408 0.6380476849128232 0
0.4378448180064626 0.8757169476544581 0
0.4218242612753156 0.8464318096548503 0
0.2041269151095405 0.6712669439883679 0
0.1899281913024358 0.6428126087016203 0
0.2873666733113978 0.3748624568845273 0
0.25902931485429 0.3731068594258471 0
0.4655528014931932 0.8260614236608285 0
0.4900644164191428 0.827533209307484 0
0.4766186361763922 0.8533722054209044 0
0.2097821981919492 0.4744371686055111 0
0.2366617787400885 0.4643803649258803 0
0.4954082655632591 0.5681412161196598 0
0.4650276958404698 0.5693878062296169 0
0.0446798451087087 0.8197760771175066 0
0.06058743994678673 0.7910495176935238 0
0.3220628198543272 0.9198272138245905 0
0.3455645950149515 0.8941155932901836 0
0.176007337597318 0.5630726618247478 0
0.1748749820710929 0.5343059850426254 0
0.4624077509283763 0.3816641497774044 0
0.4514257715259367 0.4032764360756663 0
0.4374329773880727 0.3764936952343507 0
0.1953831760643624 0.6901432348443619 0
0.1888292503087425 0.7209803679297493 0
0.1734686677406748 0.7016270534584358 0
0.1558593947377341 0.677068692328242 0
0.1493054689821142 0.7079058254136295 0
0.06965944667410873 0.4328710647099889 0
0.09642623836795106 0.4468850105801443 0
0.8832002317867702 0.1907941144841524 0
0.8559647612350217 0.1810969872454152 0
0.9223145366377103 0.2421846398852938 0
0.9213211549674967 0.214549268288001 0
0.9500507108593643 0.2335177245384694 0
0.8989345889100351 0.525191655168198 0
0.9271701870099076 0.5289783142319063 0
0.9180506998603848 0.5504970366197062 0
0.5814015596953946 0.07441937798649173 0
0.5771743336412832 0.1028445612297804 0
0.9291479249503076 0.2738776580566179 0
0.90041836905844 0.2549092018061495 0
0.9314201997350684 0.4984756571132223 0
0.9505363106854181 0.5237810385647305 0
0.1778473257675645 0.5075268657862047 0
0.2030288032957319 0.5257743216646827 0
0.0226099664572107 0.2176210073364472 0
0.04571043606301783 0.2296376242698734 0
0.02310046960580719 0.2473107345804848 0
0.4736215872349668 0.359595770726156 0
0.4602136934169666 0.3334213441063757 0
0.07227478584888203 0.9299560008576682 0
0.08598703427872584 0.907776721829628 0
0.1024466299396042 0.930066345519647 0
0.638922097927032 0.8725459003459499 0
0.6167730609882043 0.8951029439552236 0
0.588818798285008 0.04811399058503063 0
0.6113968285686372 0.07315331159510507 0
0.4063469360543029 0.9241375011687243 0
0.4876143813728308 0.3863785115674716 0
0.482161591148915 0.1236637885021644 0
0.5096889498015956 0.1310823553243585 0
0.4949515016892054 0.1477214246111088 0
0.6787569463759914 0.1237204021441665 0
0.6694897942641395 0.1481276120438631 0
0.6487588163417755 0.123515163929894 0
0.19165471777142 0.02219599677375572 0
0.178843116749325 0.04576523346413364 0
0.1636589872131993 0.02356923669037797 0
0.5042352229177918 0.2334691942101668 0
0.5286416975599534 0.2281953206884548 0
0.5196587216632046 0.2574386632852828 0
0.03052240026930286 0.3934882306760739 0
0.055438212572687 0.4095246048207579 0
0.02491581230338413 0.4278010800270361 0
0.9259852689002208 0.9093913149851702 0
0.9220641896271677 0.8806608015985415 0
0.9480787165947757 0.8852044491105913 0
0.5455333991635011 0.3033595253875799 0
0.5583596159775636 0.3286147471046313 0
0.8932321821406964 0.880248816547784 0
0.9153256298352513 0.856061950673205 0
0.2254015316126174 0.5423576052129758 0
0.6108460815708995 0.2722287075678624 0
0.623879846065253 0.2443117687398924 0
0.5473038810698275 0.5669079278663179 0
0.5207766041104128 0.5655355982713145 0
0.456561967509531 0.8021432546464839 0
0.4431161872667804 0.8279822507599043 0
0.4893773326769241 0.2130395142335659 0
0.4803943567801753 0.2422828568303939 0
0.8129918530884443 0.6378145413213899 0
0.7823173885911684 0.6301699876164331 0
0.7763733410216194 0.2457505956084983 0
0.5646748268944426 0.874466406768996 0
0.5601997659876712 0.8440105590622512 0
0.8682981595096178 0.2951539939788138 0
0.8509629960249494 0.3176286823995649 0
0.7268130763856897 0.1444532670664033 0
0.7027687100902492 0.1248810975416227 0
0.7300938621775835 0.1210015143498904 0
0.9115430534600114 0.4296369157646074 0
0.2104216012463729 0.08970186124060009 0
0.2288123925784008 0.1024316757071252 0
0.1029173378874329 0.2119670507038209 0
0.08570830093444065 0.199693782213279 0
0.1043264677038142 0.1860470804145934 0
0.07258819500812519 0.1309055100939934 0
0.04906856465959086 0.1162790942903904 0
0.07459491524948536 0.8888692840834324 0
0.1047667593402076 0.8889796287454111 0
0.8936463324841075 0.1675722934363595 0
0.90403108144318 0.1999943625870325 0
0.3141708739281911 0.3803398448554203 0
0.299921400306297 0.3979888192942046 0
0.2357694203242633 0.04618838902345279 0
0.2210664824773023 0.02219599677375572 0
0.2499970554940201 0.02399239224969707 0
0.9535624517098866 0.7044033487967402 0
0.7741119891674654 0.9300413707558486 0
0.7730114450243228 0.898291818360222 0
0.5326057084030479 0.2801139142628449 0
0.5569928870658193 0.2754104008883058 0
0.5774267737227377 0.31868505084452 0
0.5658658118740287 0.3486437859361107 0
0.02412856303187028 0.1309301517848089 0
0.02494000162772059 0.1029960013291111 0
0.06475955201624034 0.2127808247641712 0
0.06616868183262165 0.1868608544749437 0
0.6892909567629655 0.9301306384091506 0
0.7188287501690722 0.933098887941421 0
0.7045411039007843 0.9558405353166294 0
0.04673852948908092 0.172080570885962 0
0.0226099664572107 0.1882092426305649 0
0.02412856303187028 0.1603419164906911 0
0.4505010847830302 0.6471648010107791 0
0.4311409202271588 0.6248830982012812 0
0.1006253383995992 0.5022148069881199 0
0.07379686449904632 0.5166117206121382 0
0.2794088201999025 0.02399239224969707 0
0.668068990837587 0.07431631246730508 0
0.6384200178059389 0.07297793911192074 0
0.6484630401898985 0.04818629754902837 0
0.8778276951029217 0.9291117633500753 0
0.9069924699236036 0.929522356675224 0
0.8848494230939125 0.9537864525521789 0
0.02485413009667359 0.4856237042270922 0
0.02491581230338413 0.4572128447329185 0
0.4527461188987953 0.1168780672402878 0
0.7731791712113656 0.7240878952991392 0
0.7477849038139115 0.7139102818784557 0
0.7725270582002852 0.7011504799285576 0
0.1942214035083304 0.06919002014685244 0
0.1662256729501098 0.07056326006347469 0
0.5081992337608864 0.2853877877845569 0
0.04614462637428107 0.2866519949613309 0
0.02304415676847388 0.304047142733787 0
0.02310046960580719 0.2767224992863671 0
0.5945173425309633 0.6648036283087719 0
0.6215918456737141 0.6732850328238389 0
0.6072321855136261 0.6932921241195276 0
0.3101117384456218 0.255100628590445 0
0.2875692534577476 0.256166381625001 0
0.2976765463297384 0.2354745165382099 0
0.1342472225073169 0.02356923669037797 0
0.1423098918114812 0.06820299881944741 0
0.1219397870477746 0.05141118674832901 0
0.3094106721333251 0.02483143954869826 0
0.2947018452744036 0.04882383179839533 0
0.8957613806189244 0.3352527483104944 0
0.8660577809773882 0.3432748169140464 0
0.03052240026930286 0.3640764659701917 0
0.02304415676847388 0.3334589074396692 0
0.02494000162772059 0.07358423662322888 0
0.7990971739483277 0.732648621932865 0
0.7743550195619541 0.7454084238827631 0
0.6638490435555995 0.7047867082700143 0
0.6457784486169278 0.6798828691505656 0
0.6753208035161504 0.6828960487859854 0
0.5980708025744013 0.2977261983155765 0
0.5826958568227706 0.2731585212653267 0
0.3676470588235301 0.02312669104180953 0
0.3535283191921488 0.0479581305905078 0
0.3388224368392075 0.02483143954869826 0
0.1209667634245249 0.6106285404240814 0
0.1482205350946471 0.6011983984962651 0
0.2664572558094195 0.08070345536840762 0
0.2876549560396529 0.09416868845768511 0
0.2604369430138639 0.09888090882428419 0
0.1359854914281796 0.2529972938585808 0
0.140905205880847 0.2784251343218028 0
0.1235440673179866 0.2707880155111368 0
0.3230590132824491 0.2750647738482153 0
0.3331663061544399 0.2543729087614242 0
0.3260292104721637 0.3578325576612676 0
0.3385839374670629 0.3809589200709449 0
0.8738682583736421 0.9022380877274161 0
0.06768727840728123 0.1589935283350699 0
0.6820377321678852 0.1002686494276537 0
0.7279943327694671 0.09726797126717412 0
0.7520386990649075 0.1168401407919547 0
0.1039063363538947 0.8509806917063761 0
0.07300367568659072 0.8577533490877026 0
0.2937732224238219 0.5901371599543989 0
0.3178338674433177 0.5783883074409926 0
0.3156789645777828 0.6050986112511151 0
0.5165241854449608 0.3882359821505614 0
0.5405094036696776 0.3853676569905608 0
0.298929263700455 0.5367736713757342 0
0.3236598411265522 0.5256091258304855 0
0.3206587027154538 0.5522623105990275 0
0.06827505333306483 0.7619369703506622 0
0.08186842343113798 0.7358389035772124 0
0.09804127083644337 0.7618833215547745 0
0.3045743592048908 0.4837831601638787 0
0.328663984232227 0.4732611453213358 0
0.3260200271388896 0.4995984717646492 0
0.3710262169083555 0.9743707634013907 0
0.3382686223332489 0.9723483674479538 0
0.1191176430464734 0.6385608952227544 0
0.09560155187707975 0.6203845213826976 0
0.9731431489801287 0.5418477301946489 0
0.9773931617052893 0.5113450730759649 0
0.2655893755236865 0.1207142780539848 0
0.2443916752934531 0.1072490449647073 0
0.6065583475713994 0.2219184709486439 0
0.6349670578173836 0.2185692091709236 0
0.3436089317319024 0.4221784718944284 0
0.3338552894194714 0.4491682851221622 0
0.3169719586106594 0.4304560204928314 0
0.06525005516483684 0.2424705520082088 0
0.5364239688227144 0.1306852074481488 0
0.02485413009667359 0.5150354689329745 0
0.04970144773705898 0.5297417925719567 0
0.02484731764038545 0.5441180883448636 0
0.3377540628849746 0.6221838072748078 0
0.3136934178654788 0.6339326597882141 0
0.3425644448694147 0.5672237618957439 0
0.9537072902005082 0.2914795758454883 0
0.975522046264789 0.2776353715972931 0
0.9781852439357192 0.3079618513070192 0
0.5670887728205258 0.3771690074032642 0
0.5607995223613487 0.4039631821976031 0
0.3477494661538884 0.5150871109879426 0
0.5144846273396887 0.9257416342409266 0
0.543445489910355 0.9255437824529252 0
0.530049868164533 0.9495418089845004 0
0.883464812522048 0.277603158552589 0
0.9117558154349514 0.1488809217981336 0
0.8909249657785415 0.1396806736952536 0
0.288066123081879 0.6456362531645481 0
0.1053396233639873 0.02784195005795104 0
0.5569340396857682 0.8960224736379453 0
0.5724992805106125 0.9198226483815191 0
0.2772489028134822 0.9758747008502762 0
0.2919881133820258 0.9482230682982301 0
0.3088568576273667 0.9723483674479538 0
0.160747921169151 0.9275657636276613 0
0.1886632393823523 0.9284425736860971 0
0.175260177813448 0.9499583406602334 0
0.3121287783642825 0.2964337404654834 0
0.3351833460731006 0.2957060206364626 0
0.7195919613671901 0.07529827943335576 0
0.6920807545518448 0.0754770078647613 0
0.7056232200368917 0.04934594247300716 0
0.5442112477205403 0.9746719785982495 0
0.515250385149874 0.9748698303862509 0
0.4990050646669022 0.6600119865175409 0
0.5076365536000276 0.6903562066654245 0
0.4802890210092929 0.6788516278822685 0
0.4581048117582779 0.9753856685128647 0
0.4733551969081529 0.9502554988991154 0
0.4858386204439917 0.9748698303862509 0
0.02423210777152662 0.6321535197918551 0
0.04828877700831136 0.6457882948161606 0
0.02405666923678473 0.6606935985537166 0
0.1350265143985367 0.1461441850618176 0
0.1102565516737334 0.1389783599797949 0
0.1216892266773133 0.1247636005239214 0
0.4346020014924608 0.9251524062801983 0
0.4173663227842813 0.9497564319142553 0
0.5788895231359916 0.2251149865889362 0
0.5899767348881221 0.1993724270199674 0
0.2808453551000177 0.4945010408280962 0
0.2834893121933552 0.4681637143847828 0
0.07377895546076274 0.9761228122738435 0
0.103190720166645 0.9761228122738435 0
0.7652720142487276 0.2184954630662199 0
0.793916876694848 0.2233581864278887 0
0.719508389896707 0.02458360702080087 0
0.6919971830813616 0.02476233545220635 0
0.840585709827169 0.6470815987139916 0
0.8198683844652283 0.6672301334771344 0
0.9352043041542991 0.419974228016004 0
0.9348574119976539 0.4472914525986 0
0.1898230421309717 0.9754175753593346 0
0.1619077239177704 0.9745407653008988 0
0.2694631273346613 0.6003554257587084 0
0.2716180302001961 0.5736451219485859 0
0.8257517805184349 0.748007545432519 0
0.6017558309023323 0.9198820150623941 0
0.5882672811269192 0.949403323877374 0
0.9773931617052893 0.4819333083700826 0
0.975522046264789 0.2482236068914106 0
0.9745286645945753 0.2205882352941179 0
0.9781852439357192 0.3373736160129017 0
0.6310027792163255 0.09928332651338179 0
0.08569801871371585 0.2512833415503487 0
0.0666489027604934 0.2681401410560509 0
0.04907942541191207 0.5880363140190725 0
0.02423210777152662 0.6027417550859726 0
0.02484731764038545 0.5735298530507461 0
0.633063605634265 0.65139437333981 0
0.9745286645945754 0.6323529411764712 0
0.9745286645945754 0.602941176470589 0
0.4286930470523956 0.9753856685128647 0
0.2733373644576656 0.5477943128245621 0
0.2763385028687639 0.52114112805602 0
0.2478371381076 0.9758747008502762 0
0.5352590602349853 0.6969476890122607 0
0.516543016577376 0.7157873303769884 0
0.5532551398142561 0.6781636424525788 0
0.5621616027916045 0.7035947661641425 0
0.5736230124264228 0.9746719785982495 0
0.6028795628181426 0.9747313452791244 0
0.4528914426796427 0.6722216629944124 0
0.4615229316127681 0.7025658831422961 0
0.3485573249528795 0.316116575527623 0
0.3594875598710461 0.2947476089103549 0
0.219234806836854 0.9754175753593346 0
0.2317778272973953 0.9512922762096108 0
0.05010777220066442 0.705110462975561 0
0.02605110296387975 0.7208874526571381 0
0.02405666923678473 0.690105363259599 0
0.3006120984407545 0.3174022026203194 0
0.288487765650103 0.2967609558320721 0
0.9745286645945753 0.1911764705882354 0
0.7636260369555303 0.05005494242622538 0
0.7489201546025892 0.02458360702080087 0
0.7794117647058825 0.02547133540542457 0
0.9466595781035763 0.8252055604676028 0
0.9745807594427149 0.8087332984879746 0
0.9720788186608613 0.8400016737443343 0
0.6462635710066583 0.9511674881713039 0
0.6610310670120444 0.9764361428921794 0
0.6322913275240251 0.9747313452791244 0
0.2668566649730221 0.2972181532303723 0
0.27837334489655 0.2762496910755363 0
0.9476718135747041 0.5859653772534723 0
0.9731431489801287 0.5712594949005312 0
0.02631635553110712 0.8344819594704478 0
0.02631635553110712 0.86389372417633 0
0.1317518689848475 0.9284842985467022 0
0.1451549305537517 0.906968531572566 0
0.976203379592876 0.7485209958555635 0
0.976203379592876 0.7191092311496813 0
0.6625854183754794 0.02476233545220635 0
0.7283014946721669 0.910070270921121 0
0.7435516418099857 0.9357801678285999 0
0.5147058823529421 0.02547133540542457 0
0.4852941176470598 0.02547133540542457 0
0.8088235294117648 0.02547133540542457 0
0.06659258992316008 0.2954647845034708 0
0.9745807594427149 0.7793215337820922 0
0.9507841390355909 0.7631366472847144 0
0.1180396205550036 0.9506635775747423 0
0.1324959592118883 0.9745407653008988 0
0.7799527371873957 0.9736655953516987 0
0.809364501893278 0.9736655953516987 0
0.5893668149076192 0.7110972279724701 0
0.5713707353283485 0.729881274532152 0
0.6735288010595151 0.7294374140711053 0
0.7010816927032482 0.7369086948920434 0
0.6812190953079411 0.7585462210577144 0
0.2427005215464146 0.3319724876394598 0
0.258715349400164 0.3139860528687225 0
0.02605110296387975 0.7502992173630205 0
0.9329779253950858 0.1627836559963055 0
0.9302565586895198 0.1348920362551995 0
0.3742867096601022 0.4792562508164961 0
0.3961642351491926 0.4940666221682276 0
0.3719871776553161 0.5038868282738378 0
0.2490272693685051 0.5580125786288717 0
0.6904428317179269 0.9764361428921794 0
0.2411409696806682 0.6967853559597725 0
0.2563725816641287 0.6730845050841311 0
0.8359838921488485 0.7672950834565722 0
0.8620559701499719 0.7736012658546874 0
0.8468093235608669 0.7988504089627102 0
0.3002448656293771 0.4398262814131062 0
0.3099985079418081 0.4128364681853723 0
0.7697036592646673 0.6744679712962035 0
0.7950979266621214 0.6846455847168869 0
0.9720788186608613 0.8694134384502165 0
0.4227719677234286 0.4561668358197091 0
0.4171541166581016 0.4827962247339602 0
0.5423933853973002 0.1788544670467813 0
0.5531932739677137 0.1533439603719117 0
0.5731077990231278 0.1770584359853901 0
0.925321341898427 0.02676547369955734 0
0.8959095771925446 0.02676547369955734 0
0.4694602549712091 0.7295979240150761 0
0.8981835695455324 0.9770985229386637 0
0.9275953342514148 0.9770985229386637 0
0.07592785865810492 0.02784195005795104 0
0.5912783675348948 0.5466031852707224 0
0.4836323385322318 0.2873369080418287 0
0.4588209673391652 0.290461011839767 0
0.4704408758279763 0.2658366406049331 0
0.121665418456845 0.7095663595323801 0
0.1392746914597857 0.7341247206625739 0
0.153752145810353 0.7578655108483615 0
0.1823066374781138 0.7580634889827513 0
0.169144041303412 0.7834648132872897 0
0.4004379816142378 0.9743707634013907 0
0.5255642764105511 0.7425522926057209 0
0.4979417697755934 0.7359608102588848 0
0.5793417899752514 0.7570197062650881 0
0.5521365778592366 0.7495172444567606 0
0.6453907747811705 0.1940422179271897 0
0.6627122732750241 0.2164355157184381 0
0.6276543154091078 0.5761252538009551 0
0.6261210755542855 0.744229338288628 0
0.6342408010388528 0.7708020175196479 0
0.6066956729289305 0.7639564155714995 0
0.5441176470588244 0.02469002848820867 0
0.2236821973551479 0.5682084143369994 0
0.4784815148043842 0.7563628862438088 0
0.6894051743318613 0.7851524058321774 0
0.6618522826881281 0.7776811250112392 0
0.501986787031821 0.1680447957936926 0
0.4744594283791404 0.1606262289714985 0
0.6241424010450936 0.3245337246548047 0
0.8153006831387098 0.8645210717140128 0
0.7874690650150322 0.8568312539084488 0
0.8097712444181766 0.8375202397103176 0
0.7684768891974901 0.1683383688801406 0
0.7854519675013949 0.145796260763548 0
0.799790628225861 0.1735609457690176 0
0.8638667729603845 0.6265032515730877 0
0.8707433043371684 0.6559188437288322 0
0.2565735758473972 0.8258828317215083 0
0.2413419638639366 0.802181980845867 0
0.8552421320519223 0.8251833244383535 0
0.8291700540507989 0.8188771420402383 0
0.7370353139791321 0.771011643596116 0
0.7455923438146277 0.7964323196484915 0
0.7173290167871698 0.7914381779310281 0
0.1014617619916893 0.2354869637752107 0
0.1028606095873458 0.2611565528230528 0
0.7930179432831668 0.7842750059390872 0
0.8013384359271212 0.8111873242346743 0
0.7736191336505445 0.8029181036091665 0
0.810964794782151 0.1999624915214806 0
0.8426843186782628 0.8724192827487967 0
0.5335353310574541 0.769690724338657 0
0.642426880062773 0.7974082022941109 0
0.5874615154598187 0.7835923854961081 0
0.9345746767126811 0.3908929573383969 0
0.9578890352503237 0.4085474941723896 0
0.3517385108375591 0.4006020306288844 0
0.3635968473815316 0.3780947434347318 0
0.7758575989549042 0.3245337246548034 0
0.1261120952850838 0.7595260449671122 0
0.6979622041673568 0.8105730818845529 0
0.7539128364585821 0.8233446379440786 0
0.3696269916429786 0.529897482339674 0
0.5438876472344172 0.7958443521148965 0
0.5173153457857316 0.7888794002638568 0
0.70581588660964 0.8364805462910339 0
0.6778920441543315 0.8301947741921831 0
0.297700575428313 0.1324593048281267 0
0.3061517748587294 0.1078026479309523 0
0.3222177070429449 0.1279158108455173 0
0.6007766234585356 0.1738619203450978 0
0.8616929825570263 0.1291025474846704 0
0.2131658790302479 0.8049267487146351 0
0.2258746178048616 0.7809180235529114 0
0.8389251303445515 0.40686756664301 0
0.6501621329378646 0.8247372810668471 0
0.6225506512885894 0.8178581735752557 0
0.8336680944080603 0.1254259436441432 0
0.8447905946787317 0.1546954414929522 0
0.4148545846533155 0.5074268021913019 0
0.632541061604511 0.9246836194510785 0
0.3531840673449153 0.8711278190075936 0
0.3568962987039977 0.2526307153295524 0
0.3439490238671704 0.2326665700717821 0
0.8279398730860557 0.177420383404888 0
0.1564901296470497 0.8049481037668867 0
0.1850446213148105 0.8051460819012766 0
0.1125187251870107 0.7856241117405621 0
0.2689142104812176 0.8459020643282347 0
0.2409738597231433 0.8462099386143171 0
0.2005119673738855 0.8264100391942323 0
0.2230390450455881 0.06490383464125904 0
0.6580158153801479 0.8506447454733279 0
0.1434143710276352 0.8292592823972053 0
0.1275137910162367 0.8075780137832183 0
0.3839388553952017 0.2932836986736064 0
0.3705648765154227 0.272873143782446 0
0.5685726704893114 0.803022660171373 0
0.5523526852175888 0.8222113360965728 0
0.5959265534429904 0.8099593694777845 0
0.4202709850410645 0.5319615779442087 0
0.3616519063809303 0.3368048983391538 0
0.3373476925829847 0.3377633100652615 0
0.6612808010925303 0.9263884170641334 0
0.2239421298004952 0.259968230927786 0
0.2027918614051191 0.2647956416706309 0
0.5671383824485421 0.1288891763867576 0
0.2246763274364513 0.3387320530845085 0
0.2189460193043004 0.3611862224662822 0
0.1986809167216752 0.346215988022408 0
0.2625670306709321 0.218270134786383 0
0.2531542757174005 0.2378159218480837 0
0.2494490781634452 0.3982148360517649 0
0.2353611933282315 0.3788102641543004 0
0.6863119572685832 0.1701206873664199 0
0.6563138272343674 0.1699154491521474 0
0.9757393343248271 0.1626326793443328 0
0.9757393343248271 0.1332209146384505 0
0.2235708621098062 0.5993493423915438 0
0.1999451243539185 0.5836943689756479 0
0.5939436387862825 0.1255033141535433 0
0.1758960023519762 0.5942135898792922 0
0.8377683754318503 0.0204306667845825 0
0.3675262277228284 0.55569321278772 0
0.3647013924506923 0.5818192096296849 0
0.07526603464002746 0.3985582153590267 0
0.1721583218512477 0.6218201056471652 0
0.5735294117647067 0.02469002848820867 0
0.8796875119553852 0.8304032784916364 0
0.8620482424453171 0.8504300115691645 0
0.4611937786495194 0.9261521631942659 0
0.4889275873352332 0.9256363250676519 0
0.9566524930512602 0.4654535731480215 0
0.9329912423569725 0.475116260896625 0
0.2597355857923542 0.4566077739162727 0
0.2834645898972273 0.4458898932520552 0
0.8671801401377326 0.0204306667845825 0
0.6666520091434989 0.878003393471286 0
0.4400588181020772 0.1414869058638301 0
0.4253807939643476 0.1180621153152033 0
0.9533081074794465 0.1192894410091365 0
0.9775687731546194 0.1037155851942155 0
0.02790759509400181 0.8950096591720598 0
0.02790759509400181 0.9244214238779422 0
0.4398072349510737 0.5745849791891187 0
0.4113001891342654 0.5871163313185251 0
0.4181702211209143 0.5577573083922546 0
0.6997037122674932 0.6860919280907762 0
0.7265744084414978 0.6776784173919963 0
0.7202620946288267 0.6993863772066542 0
0.3881406942469112 0.3772088209740604 0
0.374986120876415 0.3575657104161209 0
0.3861957532463098 0.3359189758784824 0
0.9759998979339144 0.9275557165427275 0
0.9759998979339144 0.8981439518368451 0
0.1077803240400131 0.2865843932862748 0
0.3813475942281533 0.2511668050928039 0
0.3917639392242562 0.5444929300736151 0
0.4555829855871087 0.2454069606283322 0
0.1468258618329531 0.4445206213136811 0
0.1546603110555583 0.4201611569679474 0
0.1700212059274882 0.4400772806619788 0
0.6329364453438315 0.02342396209682202 0
0.4471282625217971 0.3125681911315217 0
0.4339367998175416 0.2910679236946261 0
0.1559401306239042 0.4902476370859299 0
0.1265293562686892 0.4939619375380891 0
0.1327759823496679 0.4681510454598717 0
0.9773590721170107 0.6617647058823535 0
0.3980025027869089 0.1218643047822673 0
0.3872772511778808 0.1449211456250561 0
0.3725862607971601 0.1241144964685779 0
0.6816331173288215 0.6611880889713275 0
0.6285686117767267 0.1720491426046329 0
0.9773590721170107 0.6911764705882357 0
0.4555715153584604 0.01906493295861289 0
0.7555168164332223 0.1929302470663019 0
0.7411781557087562 0.1651655620608322 0
0.5033331218493192 0.8076277277937521 0
0.5143989565325182 0.8349385095538281 0
0.9502679989194025 0.177338561697274 0
0.2930442189640446 0.1569376554723481 0
0.2769782867798291 0.136824492557783 0
0.8671296985817256 0.8776392368020796 0
0.2093657826134555 0.3862941990922 0
0.07357265376795108 0.5756382892839352 0
0.07295744389909231 0.6048501913191618 0
0.6217356271044737 0.1236905364130784 0
0.6116996759117325 0.1497351515700556 0
0.1962646374601087 0.2860001687455809 0
0.1823467293571739 0.2699509226840412 0
0.117415087477738 0.4482349217658403 0
0.8396070300189682 0.9766879296135151 0
0.9354873988815552 0.3353038306731401 0
0.9109280336313547 0.3177019128842696 0
0.9318111226212378 0.304204137766344 0
0.7215839751523377 0.8874649006857509 0
0.6946621648139341 0.8817456148163031 0
0.7126675369350184 0.8618215244681118 0
0.07379005204275818 0.5456943400240274 0
0.08754568123115103 0.2974113424036965 0
0.8690187947248504 0.9766879296135151 0
0.4314218465534267 0.2482843185836637 0
0.420322838337244 0.2701849889742843 0
0.406115180255761 0.2495085631550767 0
0.2105604971809399 0.3023033531864024 0
0.1901153651329949 0.3074586341998129 0
0.5053103491383704 0.4103043612018099 0
0.9320859975193121 0.1053867068109646 0
0.2196721030145409 0.4268986877914892 0
0.1957094522708942 0.4327984755595027 0
0.20181830589374 0.4098180285482317 0
0.6035246806379493 0.02342396209682202 0
0.1401157934169874 0.1105984749320416 0
0.04441459254148133 0.7650050997159616 0
0.1576881785704867 0.09162778550216621 0
0.392446602444336 0.2292661347021832 0
0.187875003048289 0.4571579399052363 0
0.3541675193009851 0.2112092673223336 0
0.3304375267514273 0.2129514607542055 0
0.5697681660623175 0.2499129101405917 0
0.3975528168754993 0.3141666333939481 0
0.410887031370984 0.3349274454709152 0
0.6055769984708664 0.3177552371470558 0
0.3041840175772765 0.1743382035072799 0
0.3272112648988853 0.1720333128737244 0
0.3176287748636332 0.1937990486383125 0
0.4086301335198759 0.2922921682660391 0
0.7379732807599937 0.2153226562469115 0
0.4413753275056257 0.2247305348091245 0
0.1392767870847375 0.4018740826703244 0
0.1624721311792725 0.3974307420186221 0
0.5105848996856622 0.4919922101068325 0
0.1507053730034978 0.1551176193250333 0
0.1840939518485432 0.4817159737079872 0
0.2247800162330538 0.1401780507779211 0
0.1826902740649327 0.3290620750964684 0
0.1683944143441014 0.3127588906556468 0
0.1769599659327818 0.351516244478242 0
0.892085104358607 0.3041530554036984 0
0.1854031318698088 0.3921939868602135 0
0.312934629044113 0.3371442348497368 0
0.1382435306308428 0.2100072679305066 0
0.1382435306308427 0.1883130809746288 0
0.05422395062510893 0.8765504421719195 0
0.2517482102042486 0.1611056345393014 0
0.2611609651577804 0.1806514216010022 0
0.9323018797589289 0.0716575294820081 0
0.2723007637710122 0.198051969635934 0
0.2848677944419444 0.2163221044223169 0
0.3569902094397748 0.1021584047870659 0
0.3462649578307467 0.1252152456298549 0
0.3378137584003302 0.1498719025270292 0
0.351258515686687 0.1693327476580618 0
0.7463068667932512 0.8901461805729297 0
0.7662939255044938 0.8756864481248519 0
0.1447165525233466 0.3152890937633305 0
0.1521416435914087 0.293685652866675 0
0.6999999136587461 0.2548847079389133 0
0.7238641529464963 0.235350236283693 0
0.6761441918143655 0.2353875536413643 0
0.07110832352104074 0.6327825461178349 0
0.720914207639907 0.7223237925772358 0
0.3970588235294126 0.02312669104180953 0
0.767344158316283 0.6530134680867994 0
0.3074102794298185 0.2152563513877609 0
0.2656110708852417 0.6526099841496709 0
0.2691632673616497 0.6238211947496443 0
0.7646392446643707 0.9530699877761487 0
0.8050517668645926 0.1277987419910144 0
0.6034983721934299 0.3454925771837483 0
0.6439864461602924 0.7264242344356854 0
0.9792593313459708 0.4541085000720577 0
0.1622527240451066 0.6497974173185933 0
0.4261597506525779 0.01906493295861289 0
0.2366370564439607 0.4421065437931526 0
0.6164413180503701 0.7195786324875371 0
0.4012860728560333 0.1650203915211034 0
0.3758698308662845 0.1672705832074139 0
0.4129904828637139 0.377392884744031 0
0.4016012093688305 0.397921917762642 0
0.2163171775609011 0.9296966443254467 0
0.2449195088316471 0.9301537698163884 0
0.1371390479981789 0.3417521708292704 0
0.1208862772454862 0.3226789330402987 0
0.7607644867839606 0.8486856161211567 0
0.6035520201662772 0.5709419413591823 0
0.5727666129335131 0.5698161913214005 0
0.5416751226273305 0.6537721630129201 0
0.5685776651839498 0.6604192401648019 0
0.7199806251240335 0.97940439242445 0
0.9786297039043528 0.3662036999826856 0
0.956814947840072 0.3506361395249984 0
0.609142560807726 0.5993382598516331 0
0.4353295258953429 0.3340282559612349 0
0.021530906104967 0.02153090610496705 0
0.021530906104967 0.05094267081084958 0
0.05094267081084936 0.02153090610496705 0
0.01836348957760159 0.7794117647058821 0
0.5595775337012099 0.5912466839547778 0
0.7327376969480437 0.8421998321604817 0
0.749392389829916 0.97940439242445 0
0.3553009573534701 0.4649835967229328 0
0.3794780148473466 0.4551633906173226 0
0.01836348957760159 0.8088235294117645 0
0.8527536481855404 0.5722699146657237 0
0.8534026103478415 0.603214668405773 0
0.881455572002905 0.5677368539046482 0
0.7720284083578073 0.0720246342600438 0
0.741536798254514 0.0711369058754201 0
0.3652673373648395 0.1894319935541091 0
0.3787788344805827 0.2091471028716857 0
0.2791876310880947 0.06198800975060131 0
0.2519696180623058 0.06670023011720039 0
0.2339648250882234 0.1242650449368259 0
0.4035464205081905 0.2074888609339586 0
0.1127243137391009 0.6658321702324032 0
0.1380895252865461 0.656076189273787 0
0.02167753403285588 0.9783224659671443 0
0.05108929873873835 0.9783224659671443 0
0.02167753403285588 0.9489107012612619 0
0.4057899948282917 0.6314042770851251 0
0.4075862775655577 0.6104651809992332 0
0.4239724622661535 0.3557805984457691 0
0.3609874808819846 0.605168059310393 0
0.3590019341696806 0.634002107847492 0
0.8105051339293299 0.7732566885405419 0
0.5861559305656999 0.3672393111431529 0
0.7138530036214219 0.1690451452525645 0
0.7027219101173606 0.6408571019378742 0
0.4531200214565227 0.1617644904349885 0
0.4257546965220751 0.162948538509904 0
0.1937153366455472 0.740149520845513 0
0.2091072321386062 0.7657488232844412 0
0.3688061027462166 0.06065582488620291 0
0.339981480761894 0.06236057339309176 0
0.9038495101478374 0.6118730138283515 0
0.931365991007221 0.6030262949461523 0
0.1367879547350992 0.2335271810018964 0
0.1200799287610629 0.2218402619765251 0
0.7286045018883331 0.7514325995638449 0
0.4870207189495546 0.4294499418140139 0
0.978469093895033 0.9784690938950329 0
0.978469093895033 0.9490573291891504 0
0.9490573291891506 0.9784690938950329 0
0.4644992908679719 0.7751112137737041 0
0.9096251186814621 0.4803135365638008 0
0.886212731167983 0.4959598776808279 0
0.535621036294185 0.8801875408404022 0
0.2659381527806666 0.2566235790233012 0
0.2486009286466109 0.2934747881121867 0
0.2439583671562028 0.257899231298619 0
0.2367260068637614 0.2787758881030035 0
0.2224354189637895 0.3170022531955857 0
0.3868884267334393 0.6380115801738125 0
0.4929808056723562 0.7814741000175127 0
0.621060929370804 0.6246590546532447 0
0.2831943073250148 0.4073590802144793 0
0.9359318588501888 0.3641339146429241 0
0.07093288498629879 0.6613226248796964 0
0.247008075138024 0.6073291567438313 0
0.5087464632903708 0.5909440383480404 0
0.1104761178512362 0.4232545864339536 0
0.5023232090810552 0.9016382985360769 0
0.9786818884409945 0.02131811155900543 0
0.949270123735112 0.02131811155900543 0
0.9786818884409945 0.05072987626488779 0
0.2834617289287926 0.1787033912369361 0
0.07157383057299138 0.7150424345367419 0
0.1013400480763699 0.7149887857408542 0
0.2427459100668065 0.4191260967818816 0
0.09819174217591808 0.4058384686359294 0
0.170019607898988 0.3739069125625903 0
0.09201834735166592 0.1456857936829752 0
0.7242149074931133 0.6562239141825921 0
0.7447732898544468 0.66951836329847 0
0.5531865533790402 0.2273668662119153 0
0.1540289652422455 0.3567529996366506 0
0.4143472762104788 0.1852979760922617 0
0.4280150441742322 0.2054170079227592 0
0.2549895092166578 0.9086538377279809 0
0.2704501589531519 0.9302494696121449 0
0.06957939684589631 0.684260345139203 0
0.1301986899643851 0.3641428389136188 0
0.5377630546336275 0.2033973971367993 0
0.3121720876542849 0.08962519447507572 0
0.3091894830215174 0.06282705704960256 0
0.3276863018405938 0.07646101652286974 0
0.3686218416463711 0.4193142952582153 0
0.5710189567809597 0.6150913540675018 0
0.5455562249172743 0.6121830906124193 0
0.7737380278362217 0.1225761651021373 0
0.3281490438427078 0.8719699184706833 0
0.5357488943896691 0.6318078614082022 0
0.5243074713099192 0.6079631912954782 0
0.9775687731546194 0.07430382048833317 0
0.5204263690199754 0.6495522636959791 0
0.3859492637353983 0.5936375102023691 0
0.3020581137670365 0.9267231362098226 0
0.7716384984281053 0.09884262201942107 0
0.5178485295782134 0.1796829215233209 0
0.1645830677016018 0.2758949312141191 0
0.4521761832079141 0.2025396499674277 0
0.2194874976776082 0.6906202584596814 0
0.276491139228376 0.428270340944596 0
0.4104430693950404 0.6524294973758605 0
0.4617403566795594 0.4256722587736261 0
0.4367655831392558 0.4205018042305725 0
0.2156298449692348 0.7286657022314391 0
0.266414031592865 0.4134226920534283 0
0.1053556350728894 0.1670663782208713 0
0.3429640853946616 0.08915871081856491 0
0.8835602048578409 0.6120519134206136 0
0.9282173637857312 0.7803617419048505 0
0.4889482100894708 0.8781884902151811 0
0.4644365951635211 0.8767167045685256 0
0.6865679087781523 0.2108605623976304 0
0.227771079287595 0.8663235932106381 0
0.2154304446537746 0.8463043606039117 0
0.6755684473608181 0.903646769688925 0
0.8900773051240114 0.7859714449796417 0
0.3818494348461924 0.4347487423719421 0
0.4008351871528246 0.4490213964655054 0
0.1711102916466122 0.254690404139169 0
0.1541490932979596 0.2411642998125624 0
0.0680470000571895 0.04937285616291809 0
0.04647090773268758 0.06570337802231341 0
0.4501743919195411 0.9005332324487347 0
0.9299804753927742 0.5713446133760945 0
0.9017448772929015 0.5675579543123862 0
0.9328809579239654 0.8083825249884218 0
0.9119368028242668 0.7948070816820292 0
0.4317349953865053 0.6708790562708065 0
0.2609330190594182 0.1451926286982061 0
0.8947408992622458 0.813992228063213 0
0.931767255664834 0.1913274472402081 0
0.714108955130991 0.209785020283775 0
0.7006770365916497 0.1908329823608489 0
0.9792593313459708 0.4246967353661752 0
0.1191805912857051 0.4071883798216255 0
0.1269924114094193 0.3844579648723002 0
0.3899790139518491 0.4131723011063981 0
0.2018049209166041 0.9073040672928747 0
0.2323972306354901 0.7156616468157664 0
0.9786297039043528 0.3956154646885681 0
0.3005248654254533 0.9018536151385054 0
0.4251433877222744 0.4357521875743287 0
0.04958512912685764 0.9321556545509688 0
0.06604472478773604 0.9544452782409878 0
0.9544689918289474 0.9354365751436429 0
0.1735464620832707 0.8671087360500198 0
0.1586279848033816 0.8472144146403403 0
0.1873091869383372 0.8465236937905531 0
0.9334149950453039 0.04808358525856271 0
0.2285846912909033 0.2955437877413537 0
0.5969586341279733 0.6194757422114718 0
0.5829373253440377 0.6404121488691132 0
0.9354761928523302 0.9555676168336966 0
0.2669173268475631 0.8874893543723905 0
0.2413866767260583 0.8873936545766339 0
0.9562506615956139 0.06621016734145613 0
0.9303790171421119 0.8396509002447815 0
0.1113708255986984 0.6887698904919097 0
0.9330069968912116 0.9340660041872737 0
0.1296516461725686 0.8498443246566718 0
0.1191199501296412 0.8689358239495112 0
0.1082291389617918 0.3070428050917804 0
0.1305120691588816 0.8878432616957068 0
0.1595081213431852 0.886924726776666 0
0.535514742732777 0.8368322510057746 0
0.4973564562681483 0.1925877258837106 0
0.1881893234781408 0.8862340059268788 0
0.756867828915791 0.7564267412813084 0
0.7827858316527532 0.764987467915034 0
0.09239894335862575 0.6712545964408773 0
0.9015470096556406 0.839238915194024 0
0.2372833169722949 0.763004055415673 0
0.2372833169722948 0.7348307997315301 0
0.1225646720258816 0.1793396467114132 0
0.1392726979999179 0.1693323787809067 0
0.3692853883610749 0.08805796165728791 0
0.3161452039792943 0.8576105053850618 0
0.2905179091956943 0.8459069120087281 0
0.8933853475352944 0.5885844306610367 0
0.2749181930714404 0.866234018901537 0
0.5145052500939262 0.8782937993884556 0
0.4148288025686517 0.4133563648763688 0
0.2158432616566895 0.8874880765662285 0
0.240359298948106 0.1449954200355032 0
0.4601553067991383 0.1820878616175723 0
0.4735155901305318 0.2014013885039376 0
0.3085257316493306 0.8805982796676518 0
0.5222460373026007 0.8567377325195065 0
0.2885210255620398 0.8874942020528839 0
$EndNodes
$Elements
8 844 1 844
1 5 8 7
1 1 8 14 
2 8 9 15 
3 9 10 16 
4 10 11 17 
5 11 12 18 
6 12 13 19 
7 13 1 20 
1 6 8 11
8 2 21 31 
9 21 22 32 
10 22 23 33 
11 23 24 34 
12 24 25 35 
13 25 26 36 
14 26 27 37 
15 27 28 38 
16 28 29 39 
17 29 30 40 
18 30 2 41 
1 7 8 14
19 3 42 55 
20 42 43 56 
21 43 44 57 
22 44 45 58 
23 45 46 59 
24 46 47 60 
25 47 48 61 
26 48 49 62 
27 49 50 63 
28 50 51 64 
29 51 52 65 
30 52 53 66 
31 53 54 67 
32 54 3 68 
1 8 8 17
33 4 69 85 
34 69 70 86 
35 70 71 87 
36 71 72 88 
37 72 73 89 
38 73 74 90 
39 74 75 91 
40 75 76 92 
41 76 77 93 
42 77 78 94 
43 78 79 95 
44 79 80 96 
45 80 81 97 
46 81 82 98 
47 82 83 99 
48 83 84 100 
49 84 5 101 
1 9 8 17
50 6 102 118 
51 102 103 119 
52 103 104 120 
53 104 105 121 
54 105 106 122 
55 106 107 123 
56 107 108 124 
57 108 109 125 
58 109 110 126 
59 110 111 127 
60 111 112 128 
61 112 113 129 
62 113 114 130 
63 114 115 131 
64 115 116 132 
65 116 117 133 
66 117 4 134 
1 10 8 17
67 5 135 151 
68 135 136 152 
69 136 137 153 
70 137 138 154 
71 138 139 155 
72 139 140 156 
73 140 141 157 
74 141 142 158 
75 142 143 159 
76 143 144 160 
77 144 145 161 
78 145 146 162 
79 146 147 163 
80 147 148 164 
81 148 149 165 
82 149 150 166 
83 150 7 167 
1 11 8 17
84 7 168 184 
85 168 169 185 
86 169 170 186 
87 170 171 187 
88 171 172 188 
89 172 173 189 
90 173 174 190 
91 174 175 191 
92 175 176 192 
93 176 177 193 
94 177 178 194 
95 178 179 195 
96 179 180 196 
97 180 181 197 
98 181 182 198 
99 182 183 199 
100 183 6 200 
2 1 9 744
101 374 514 289 521 522 523 
102 271 342 325 524 525 526 
103 325 422 205 527 528 529 
104 204 353 332 530 531 532 
105 212 274 273 533 534 535 
106 300 364 347 536 537 538 
107 273 275 210 539 540 541 
108 284 285 272 542 543 544 
109 48 325 205 545 529 546 
110 278 322 284 547 548 549 
111 354 440 270 550 551 552 
112 233 434 363 553 554 555 
113 286 331 278 556 557 558 
114 207 451 344 559 560 561 
115 302 464 342 562 563 564 
116 290 379 341 565 566 567 
117 271 325 47 526 568 569 
118 276 306 292 570 571 572 
119 341 425 290 573 574 567 
120 344 439 207 575 576 561 
121 363 434 364 554 577 578 
122 289 465 374 579 580 523 
123 204 332 45 532 581 582 
124 44 272 204 583 584 585 
125 212 273 51 535 586 587 
126 43 284 272 588 544 589 
127 52 273 210 590 541 591 
128 259 420 12 592 593 594 
129 347 357 300 595 596 538 
130 278 284 42 549 597 598 
131 3 286 278 599 558 600 
132 272 446 204 601 602 584 
133 270 440 269 551 603 604 
134 364 463 347 605 606 537 
135 365 366 206 607 608 609 
136 276 292 210 572 610 611 
137 410 443 242 612 613 614 
138 238 421 369 615 616 617 
139 217 425 341 618 573 619 
140 341 444 217 620 621 619 
141 12 420 282 593 622 623 
142 304 423 344 624 625 626 
143 351 406 227 627 628 629 
144 53 455 54 630 631 67 
145 337 375 209 632 633 634 
146 378 430 262 635 636 637 
147 373 514 374 638 521 639 
148 292 455 53 640 630 641 
149 22 475 311 642 643 644 
150 403 448 372 645 646 647 
151 366 435 206 648 649 608 
152 276 317 306 650 651 570 
153 264 464 302 652 562 653 
154 455 510 349 654 655 656 
155 423 439 344 657 575 625 
156 286 455 349 658 656 659 
157 422 464 334 660 661 662 
158 211 463 364 663 605 664 
159 334 464 264 661 652 665 
160 207 411 345 666 667 668 
161 389 407 405 669 670 671 
162 299 403 372 672 647 673 
163 345 451 207 674 559 668 
164 317 386 306 675 676 651 
165 311 404 352 677 678 679 
166 382 474 243 680 681 682 
167 383 431 338 683 684 685 
168 417 431 383 686 683 687 
169 443 505 242 688 689 613 
170 313 475 22 690 642 691 
171 243 458 382 692 693 682 
172 262 430 333 636 694 695 
173 313 483 470 696 697 698 
174 369 421 323 616 699 700 
175 342 443 302 701 702 564 
176 227 480 351 703 704 629 
177 352 445 311 705 706 679 
178 381 383 338 707 685 708 
179 432 484 427 709 710 711 
180 458 473 326 712 713 714 
181 340 458 326 715 714 716 
182 209 508 337 717 718 634 
183 321 386 317 719 675 720 
184 384 386 228 721 722 723 
185 322 502 394 724 725 726 
186 345 411 346 667 727 728 
187 384 469 386 729 730 721 
188 394 502 368 725 731 732 
189 338 421 381 733 734 708 
190 114 371 328 735 736 737 
191 270 432 354 738 739 552 
192 399 424 398 740 741 742 
193 405 412 389 743 744 671 
194 411 433 346 745 746 727 
195 311 475 404 643 747 677 
196 270 484 432 748 709 738 
197 359 451 316 749 750 751 
198 460 467 413 752 753 754 
199 71 360 330 755 756 757 
200 307 454 438 758 759 760 
201 111 374 209 761 762 763 
202 426 485 232 764 765 766 
203 269 440 358 603 767 768 
204 232 485 415 765 769 770 
205 381 421 238 734 615 771 
206 212 279 274 772 773 533 
207 271 343 342 774 775 524 
208 21 483 313 776 696 777 
209 231 454 307 778 758 779 
210 285 297 272 780 781 543 
211 275 276 210 782 611 540 
212 389 506 407 783 784 669 
213 306 356 292 785 786 571 
214 320 467 392 787 788 789 
215 286 349 331 659 790 556 
216 420 476 282 791 792 622 
217 281 489 450 793 794 795 
218 299 372 370 673 796 797 
219 424 518 398 798 799 741 
220 321 492 386 800 801 719 
221 333 430 361 694 802 803 
222 329 360 72 804 805 806 
223 364 434 211 577 807 664 
224 206 367 365 808 809 609 
225 358 440 438 767 810 811 
226 358 500 269 812 813 768 
227 299 370 116 797 814 815 
228 450 489 371 794 816 817 
229 402 472 471 818 819 820 
230 370 371 115 821 822 823 
231 242 498 410 824 825 614 
232 337 431 375 826 827 632 
233 73 329 72 828 806 89 
234 215 460 433 829 830 831 
235 435 485 318 832 833 834 
236 209 375 110 633 835 836 
237 344 451 359 560 749 837 
238 357 509 376 838 839 840 
239 360 420 330 841 842 756 
240 438 440 307 810 843 760 
241 328 373 113 844 845 846 
242 268 479 462 847 848 849 
243 214 377 202 850 851 852 
244 71 330 70 757 853 87 
245 330 448 403 854 645 855 
246 73 362 329 856 857 828 
247 356 510 455 858 654 859 
248 373 374 112 639 860 861 
249 115 371 114 822 735 131 
250 117 299 116 862 815 133 
251 357 516 509 863 864 838 
252 335 462 353 865 866 867 
253 212 358 279 868 869 772 
254 74 423 362 870 871 872 
255 114 328 113 737 846 130 
256 408 417 383 873 687 874 
257 476 515 348 875 876 877 
258 355 457 267 878 879 880 
259 220 377 214 881 850 882 
260 112 374 111 860 761 128 
261 361 430 309 802 883 884 
262 366 485 435 885 832 648 
263 116 370 115 814 823 132 
264 370 450 371 886 817 821 
265 392 467 460 788 752 887 
266 392 495 320 888 889 789 
267 406 518 227 890 891 628 
268 72 360 71 805 755 88 
269 203 235 234 892 893 894 
270 111 209 110 763 836 127 
271 205 270 269 895 604 896 
272 235 237 236 897 898 899 
273 351 385 339 900 901 902 
274 237 241 239 903 904 905 
275 352 404 178 678 906 907 
276 408 437 417 908 909 873 
277 143 394 368 910 732 911 
278 348 496 476 912 913 877 
279 113 373 112 845 861 129 
280 279 280 274 914 915 773 
281 361 442 241 916 917 918 
282 371 489 328 816 919 736 
283 316 451 345 750 674 920 
284 109 375 216 921 922 923 
285 203 234 28 894 924 925 
286 235 236 234 899 926 893 
287 261 384 139 927 928 929 
288 205 269 49 896 930 931 
289 48 205 49 546 931 62 
290 237 239 236 905 932 898 
291 260 390 388 933 934 935 
292 386 469 306 730 936 676 
293 379 492 321 937 800 938 
294 27 203 28 939 925 38 
295 330 403 70 855 940 853 
296 388 390 389 934 941 942 
297 179 395 352 943 944 945 
298 263 397 396 946 947 948 
299 110 375 109 835 921 126 
300 308 377 220 949 881 950 
301 391 392 215 951 952 953 
302 260 388 175 935 954 955 
303 242 393 221 956 957 958 
304 176 400 260 959 960 961 
305 107 387 229 962 963 964 
306 259 512 372 965 966 967 
307 404 475 400 747 968 969 
308 279 314 280 970 971 914 
309 237 369 241 972 973 903 
310 183 399 182 974 975 199 
311 74 362 73 872 856 90 
312 275 277 276 976 977 782 
313 80 391 215 978 953 979 
314 285 300 297 980 981 780 
315 349 468 331 982 983 790 
316 263 396 181 948 984 985 
317 203 380 235 986 987 892 
318 347 516 357 988 863 595 
319 388 389 208 942 989 990 
320 143 368 142 911 991 159 
321 138 384 228 992 723 993 
322 140 261 139 994 929 156 
323 433 460 346 830 995 746 
324 328 489 466 919 996 997 
325 179 352 178 945 907 195 
326 216 387 108 998 999 1000 
327 462 479 353 848 1001 866 
328 145 233 144 1002 1003 161 
329 177 400 176 1004 959 193 
330 235 238 237 1005 1006 897 
331 180 395 179 1007 943 196 
332 109 216 108 923 1000 125 
333 221 393 245 957 1008 1009 
334 245 393 268 1008 1010 1011 
335 174 388 208 1012 990 1013 
336 30 242 221 1014 958 1015 
337 223 308 220 1016 950 1017 
338 180 396 395 1018 1019 1007 
339 176 260 175 961 955 192 
340 229 385 106 1020 1021 1022 
341 308 378 377 1023 1024 949 
342 138 228 137 993 1025 154 
343 47 325 48 568 545 61 
344 217 391 81 1026 1027 1028 
345 232 401 148 1029 1030 1031 
346 208 402 173 1032 1033 1034 
347 378 447 377 1035 1036 1024 
348 233 394 144 1037 1038 1003 
349 139 384 138 928 992 155 
350 107 229 106 964 1022 123 
351 104 227 103 1039 1040 120 
352 263 398 397 1041 1042 946 
353 147 211 146 1043 1044 163 
354 80 215 79 979 1045 96 
355 174 208 173 1013 1034 190 
356 471 472 367 819 1046 1047 
357 77 207 76 1048 1049 93 
358 82 217 81 1050 1028 98 
359 328 466 373 997 1051 844 
360 238 369 237 617 972 1006 
361 147 401 211 1052 1053 1043 
362 182 399 263 975 1054 1055 
363 175 388 174 954 1012 191 
364 171 206 170 1056 1057 187 
365 245 268 254 1011 1058 1059 
366 256 335 258 1060 1061 1062 
367 108 387 107 999 962 124 
368 144 394 143 1038 910 160 
369 262 481 378 1063 1064 637 
370 106 385 105 1021 1065 122 
371 81 391 80 1027 978 97 
372 182 263 181 1055 985 198 
373 416 492 379 1066 937 1067 
374 239 253 240 1068 1069 1070 
375 235 380 238 987 1071 1005 
376 173 402 172 1033 1072 189 
377 181 396 180 984 1018 197 
378 26 243 27 1073 1074 37 
379 288 347 327 1075 1076 1077 
380 241 507 361 1078 1079 918 
381 148 401 147 1030 1052 164 
382 357 376 297 840 1080 1081 
383 149 232 148 1082 1031 165 
384 253 334 264 1083 665 1084 
385 314 316 315 1085 1086 1087 
386 84 290 83 1088 1089 100 
387 30 221 2 1015 1090 41 
388 169 318 168 1091 1092 185 
389 70 403 69 940 1093 86 
390 46 271 47 1094 569 60 
391 307 354 230 1095 1096 1097 
392 339 340 326 1098 716 1099 
393 294 326 250 1100 1101 1102 
394 178 404 177 906 1103 194 
395 221 245 244 1009 1104 1105 
396 245 254 246 1059 1106 1107 
397 280 298 274 1108 1109 915 
398 300 357 297 596 1081 981 
399 45 332 46 581 1110 59 
400 254 256 255 1111 1112 1113 
401 263 399 398 1054 742 1041 
402 77 411 207 1114 666 1048 
403 380 381 238 1115 771 1071 
404 221 244 2 1105 1116 1090 
405 44 204 45 585 582 58 
406 256 258 257 1062 1117 1118 
407 316 499 359 1119 1120 751 
408 50 212 51 1121 587 64 
409 301 365 287 1122 1123 1124 
410 277 320 319 1125 1126 1127 
411 285 363 300 1128 1129 980 
412 24 247 25 1130 1131 35 
413 288 327 301 1077 1132 1133 
414 258 266 265 1134 1135 1136 
415 466 489 355 996 1137 1138 
416 177 404 400 1103 969 1004 
417 43 272 44 589 583 57 
418 266 288 287 1139 1140 1141 
419 277 317 276 1142 650 977 
420 301 366 365 1143 607 1122 
421 245 246 244 1107 1144 1104 
422 256 257 255 1118 1145 1112 
423 254 255 246 1113 1146 1106 
424 349 488 468 1147 1148 982 
425 350 361 309 1149 884 1150 
426 21 313 22 777 691 32 
427 52 210 53 591 1151 66 
428 288 301 287 1133 1124 1140 
429 294 339 326 1152 1099 1100 
430 258 265 257 1136 1153 1117 
431 266 287 265 1141 1154 1135 
432 239 240 236 1070 1155 932 
433 246 283 244 1156 1157 1144 
434 51 273 52 586 590 65 
435 265 305 257 1158 1159 1153 
436 42 284 43 597 588 56 
437 248 348 303 1160 1161 1162 
438 314 315 280 1087 1163 971 
439 341 379 321 566 938 1164 
440 247 250 25 1165 1166 1131 
441 54 286 3 1167 599 68 
442 257 405 255 1168 1169 1145 
443 319 341 321 1170 1164 1171 
444 253 264 240 1084 1172 1069 
445 389 412 208 744 1173 989 
446 22 311 23 644 1174 33 
447 219 220 214 1175 882 1176 
448 277 319 317 1127 1177 1142 
449 3 278 42 600 598 55 
450 293 294 250 1178 1102 1179 
451 294 351 339 1180 902 1152 
452 363 364 300 578 536 1129 
453 24 291 247 1181 1182 1130 
454 319 321 317 1171 720 1177 
455 247 293 250 1183 1179 1165 
456 360 476 420 1184 791 841 
457 210 292 53 610 641 1151 
458 305 405 257 1185 1168 1159 
459 293 406 294 1186 1187 1178 
460 222 223 220 1188 1017 1189 
461 246 407 283 1190 1191 1156 
462 294 406 351 1187 627 1180 
463 255 407 246 1192 1190 1146 
464 264 302 240 653 1193 1172 
465 223 309 308 1194 1195 1016 
466 208 412 402 1173 1196 1032 
467 405 407 255 670 1192 1169 
468 8 201 9 1197 1198 15 
469 316 345 315 920 1199 1086 
470 225 262 252 1200 1201 1202 
471 1 202 8 1203 1204 14 
472 262 333 295 695 1205 1206 
473 413 467 298 753 1207 1208 
474 137 416 136 1209 1210 153 
475 380 382 381 1211 1212 1115 
476 345 346 315 728 1213 1199 
477 382 383 381 1214 707 1212 
478 82 425 217 1215 618 1050 
479 236 409 234 1216 1217 926 
480 374 508 209 1218 717 762 
481 382 408 383 1219 874 1214 
482 78 411 77 1220 1114 94 
483 327 415 301 1221 1222 1132 
484 400 436 260 1223 1224 960 
485 331 468 368 983 1225 1226 
486 369 452 241 1227 1228 973 
487 290 425 83 574 1229 1089 
488 305 412 405 1230 743 1185 
489 344 359 310 837 1231 1232 
490 416 449 136 1233 1234 1210 
491 103 424 102 1235 1236 119 
492 302 410 409 1237 1238 1239 
493 335 486 376 1240 1241 1242 
494 312 350 309 1243 1150 1244 
495 223 312 309 1245 1244 1194 
496 150 426 149 1246 1247 166 
497 267 466 355 1248 1138 880 
498 219 222 220 1249 1189 1175 
499 240 409 236 1250 1216 1155 
500 231 307 230 779 1097 1251 
501 324 336 296 1252 1253 1254 
502 302 409 240 1239 1250 1193 
503 215 433 79 831 1255 1045 
504 354 414 230 1256 1257 1096 
505 324 338 337 1258 1259 1260 
506 145 434 233 1261 553 1002 
507 304 310 249 1262 1263 1264 
508 353 486 335 1265 1240 867 
509 280 413 298 1266 1208 1108 
510 211 434 146 807 1267 1044 
511 207 439 76 576 1268 1049 
512 277 419 320 1269 1270 1125 
513 470 483 283 697 1271 1272 
514 228 416 137 1273 1209 1025 
515 248 453 348 1274 1275 1160 
516 301 415 366 1222 1276 1143 
517 262 295 252 1206 1277 1201 
518 216 417 387 1278 1279 998 
519 346 413 315 1280 1281 1213 
520 201 224 9 1282 1283 1198 
521 324 337 336 1260 1284 1252 
522 206 435 170 649 1285 1057 
523 261 510 469 1286 1287 1288 
524 456 472 305 1289 1290 1291 
525 216 431 417 1292 686 1278 
526 315 413 280 1281 1266 1163 
527 466 514 373 1293 638 1051 
528 169 435 318 1294 834 1091 
529 226 230 222 1295 1296 1297 
530 201 225 224 1298 1299 1282 
531 205 484 270 1300 748 895 
532 379 449 416 1301 1233 1067 
533 295 323 296 1302 1303 1304 
534 78 433 411 1305 745 1220 
535 372 448 259 646 1306 967 
536 351 480 385 704 1307 900 
537 259 448 420 1306 1308 592 
538 219 226 222 1309 1297 1249 
539 323 324 296 1310 1254 1303 
540 218 219 214 1311 1176 1312 
541 358 438 279 811 1313 869 
542 223 414 312 1314 1315 1245 
543 304 344 310 626 1232 1262 
544 212 500 358 1316 812 868 
545 213 248 218 1317 1318 1319 
546 222 414 223 1320 1314 1188 
547 275 419 277 1321 1269 976 
548 226 231 230 1322 1251 1295 
549 336 428 296 1323 1324 1253 
550 342 464 325 563 1325 525 
551 11 259 12 1326 594 18 
552 324 421 338 1327 733 1258 
553 12 282 13 623 1328 19 
554 225 251 224 1329 1330 1299 
555 225 252 251 1202 1331 1329 
556 469 510 356 1287 858 1332 
557 295 296 252 1304 1333 1277 
558 309 430 308 883 1334 1195 
559 10 281 11 1335 1336 17 
560 227 424 103 1337 1235 1040 
561 13 453 1 1338 1339 20 
562 290 449 379 1340 1301 565 
563 1 213 202 1341 1342 1203 
564 303 304 249 1343 1264 1344 
565 248 249 218 1345 1346 1318 
566 248 303 249 1162 1344 1345 
567 367 456 365 1347 1348 809 
568 251 267 224 1349 1350 1330 
569 338 431 337 684 826 1259 
570 273 459 275 1351 1352 539 
571 274 459 273 1353 1351 534 
572 417 437 387 909 1354 1279 
573 376 509 335 839 1355 1242 
574 83 425 82 1229 1215 99 
575 75 423 74 1356 870 91 
576 149 426 232 1247 766 1082 
577 297 446 272 1357 601 781 
578 213 214 202 1358 852 1342 
579 323 421 324 699 1327 1310 
580 213 218 214 1319 1312 1358 
581 27 474 203 1359 1360 939 
582 206 471 367 1361 1047 808 
583 319 444 341 1362 620 1170 
584 50 500 212 1363 1316 1121 
585 256 462 335 1364 865 1060 
586 230 414 222 1257 1320 1296 
587 368 468 142 1225 1365 991 
588 382 458 408 693 1366 1219 
589 75 439 423 1367 657 1356 
590 323 452 369 1368 1227 700 
591 268 462 254 849 1369 1058 
592 310 418 249 1370 1371 1263 
593 312 427 350 1372 1373 1243 
594 396 478 395 1374 1375 1019 
595 251 289 267 1376 1377 1349 
596 365 456 287 1348 1378 1123 
597 46 501 271 1379 1380 1094 
598 375 431 216 827 1292 922 
599 393 429 268 1381 1382 1010 
600 402 471 172 820 1383 1072 
601 140 488 261 1384 1385 994 
602 332 501 46 1386 1379 1110 
603 354 432 414 739 1387 1256 
604 4 482 117 1388 1389 134 
605 69 482 4 1390 1388 85 
606 385 480 105 1307 1391 1065 
607 271 501 343 1380 1392 774 
608 265 456 305 1393 1291 1158 
609 171 471 206 1394 1361 1056 
610 239 442 253 1395 1396 1068 
611 104 480 227 1397 703 1039 
612 243 474 27 681 1359 1074 
613 284 461 285 1398 1399 542 
614 322 461 284 1400 1398 548 
615 217 495 391 1401 1402 1026 
616 218 418 219 1403 1404 1311 
617 329 515 476 1405 875 1406 
618 476 496 282 913 1407 792 
619 219 418 226 1404 1408 1309 
620 340 437 408 1409 908 1410 
621 6 487 183 1411 1412 200 
622 102 487 6 1413 1411 118 
623 410 498 477 825 1414 1415 
624 414 432 312 1387 1416 1315 
625 249 418 218 1371 1403 1346 
626 234 477 28 1417 1418 924 
627 288 516 347 1419 988 1075 
628 269 500 49 813 1420 930 
629 241 442 239 917 1395 904 
630 419 467 320 1421 787 1270 
631 79 433 78 1255 1305 95 
632 204 486 353 1422 1265 530 
633 359 441 310 1423 1424 1231 
634 326 519 250 1425 1426 1101 
635 423 511 362 1427 1428 871 
636 363 494 233 1429 1430 555 
637 10 355 281 1431 1432 1335 
638 308 430 378 1334 635 1023 
639 335 509 258 1355 1433 1061 
640 422 484 205 1434 1300 528 
641 7 490 150 1435 1436 167 
642 168 490 7 1437 1435 184 
643 2 483 21 1438 776 31 
644 331 502 278 1439 1440 557 
645 302 443 410 702 612 1237 
646 390 506 389 1441 783 941 
647 377 447 202 1036 1442 851 
648 378 481 447 1064 1443 1035 
649 8 447 201 1444 1445 1197 
650 225 481 262 1446 1063 1200 
651 202 447 8 1442 1444 1204 
652 49 500 50 1420 1363 63 
653 28 477 29 1418 1447 39 
654 244 483 2 1448 1438 1116 
655 353 479 332 1001 1449 531 
656 361 507 333 1079 1450 803 
657 488 510 261 1451 1286 1385 
658 387 437 229 1354 1452 963 
659 380 474 382 1453 680 1211 
660 343 443 342 1454 701 775 
661 337 508 336 718 1455 1284 
662 146 434 145 1267 1261 162 
663 260 436 390 1224 1456 933 
664 5 491 84 1457 1458 101 
665 135 491 5 1459 1457 151 
666 1 453 213 1339 1460 1341 
667 385 493 339 1461 1462 901 
668 170 435 169 1285 1294 186 
669 295 452 323 1463 1368 1302 
670 465 508 374 1464 1218 580 
671 296 428 252 1324 1465 1333 
672 372 450 370 1466 886 796 
673 376 486 446 1241 1467 1468 
674 279 438 314 1313 1469 970 
675 252 428 251 1465 1470 1331 
676 418 441 226 1471 1472 1408 
677 478 517 395 1473 1474 1375 
678 261 469 384 1288 729 927 
679 229 493 385 1475 1461 1020 
680 356 455 292 859 640 786 
681 251 428 289 1470 1476 1376 
682 310 441 418 1424 1471 1370 
683 367 472 456 1046 1289 1347 
684 312 432 427 1416 711 1372 
685 438 454 314 759 1477 1469 
686 307 440 354 843 550 1095 
687 76 439 75 1268 1367 92 
688 278 502 322 1440 724 547 
689 303 515 362 1478 1479 1480 
690 350 442 361 1481 916 1149 
691 376 446 297 1468 1357 1080 
692 343 501 429 1392 1482 1483 
693 320 444 319 1484 1362 1126 
694 311 445 23 706 1485 1174 
695 368 502 331 731 1439 1226 
696 429 505 343 1486 1487 1483 
697 329 476 360 1406 1184 804 
698 136 449 135 1234 1488 152 
699 393 505 429 1489 1486 1381 
700 410 477 409 1415 1490 1238 
701 395 517 352 1474 1491 944 
702 444 495 217 1492 1401 621 
703 314 454 316 1477 1493 1085 
704 267 457 224 879 1494 1350 
705 226 441 231 1472 1495 1322 
706 392 460 215 887 829 952 
707 243 473 458 1496 712 692 
708 452 507 241 1497 1078 1228 
709 477 498 29 1414 1498 1447 
710 427 484 334 710 1499 1500 
711 473 519 326 1501 1425 713 
712 333 452 295 1502 1463 1205 
713 372 512 450 966 1503 1466 
714 287 456 265 1378 1393 1154 
715 362 511 303 1428 1504 1480 
716 54 455 286 631 658 1167 
717 285 461 363 1399 1505 1128 
718 401 463 211 1506 663 1053 
719 313 470 436 698 1507 1508 
720 213 453 248 1460 1274 1317 
721 298 459 274 1509 1353 1109 
722 291 497 247 1510 1511 1182 
723 325 464 422 1325 660 527 
724 362 515 329 1479 1405 857 
725 412 472 402 1512 818 1196 
726 254 462 256 1369 1364 1111 
727 347 463 327 606 1513 1076 
728 343 505 443 1487 688 1454 
729 442 513 253 1514 1515 1396 
730 9 457 10 1516 1517 16 
731 305 472 412 1290 1512 1230 
732 403 482 69 1518 1390 1093 
733 408 458 340 1366 715 1410 
734 117 482 299 1389 1519 862 
735 400 475 436 968 1520 1223 
736 306 469 356 936 1332 785 
737 394 494 322 1521 1522 726 
738 227 518 424 891 798 1337 
739 299 482 403 1519 1518 672 
740 348 515 303 876 1478 1161 
741 401 503 463 1523 1524 1506 
742 346 460 413 995 754 1280 
743 30 498 242 1525 824 1014 
744 453 496 348 1526 912 1275 
745 463 503 327 1524 1527 1513 
746 386 492 228 801 1528 722 
747 275 459 419 1352 1529 1321 
748 419 459 298 1529 1509 1530 
749 29 498 30 1498 1525 40 
750 224 457 9 1494 1516 1283 
751 142 468 141 1365 1531 158 
752 336 465 428 1532 1533 1323 
753 172 471 171 1383 1394 188 
754 350 513 442 1534 1514 1481 
755 397 478 396 1535 1374 947 
756 26 473 243 1536 1496 1073 
757 468 488 141 1148 1537 1531 
758 352 517 445 1491 1538 705 
759 420 448 330 1308 854 842 
760 253 513 334 1515 1539 1083 
761 424 487 102 1540 1413 1236 
762 10 457 355 1517 878 1431 
763 183 487 399 1412 1541 974 
764 203 474 380 1360 1453 986 
765 150 490 426 1436 1542 1246 
766 105 480 104 1391 1397 121 
767 298 467 419 1207 1421 1530 
768 497 504 293 1543 1544 1545 
769 247 497 293 1511 1545 1183 
770 283 483 244 1271 1448 1157 
771 141 488 140 1537 1384 157 
772 84 491 290 1458 1546 1088 
773 391 495 392 1402 888 951 
774 233 494 394 1430 1521 1037 
775 201 481 225 1547 1446 1298 
776 409 477 234 1490 1417 1217 
777 479 501 332 1548 1386 1449 
778 429 501 479 1482 1548 1549 
779 318 490 168 1550 1437 1092 
780 291 517 478 1551 1473 1552 
781 242 505 393 689 1489 956 
782 290 491 449 1546 1553 1340 
783 232 503 401 1554 1523 1029 
784 339 493 340 1462 1555 1098 
785 318 485 426 833 764 1556 
786 349 510 488 655 1451 1147 
787 293 504 406 1544 1557 1186 
788 447 481 201 1443 1547 1445 
789 504 518 406 1558 890 1557 
790 289 514 267 522 1559 1377 
791 398 504 397 1560 1561 1042 
792 407 506 283 784 1562 1191 
793 454 499 316 1563 1119 1493 
794 397 504 497 1561 1543 1564 
795 428 465 289 1533 579 1476 
796 258 509 266 1433 1565 1134 
797 509 516 266 864 1566 1565 
798 340 493 437 1555 1567 1409 
799 334 484 422 1499 1434 662 
800 266 516 288 1566 1419 1139 
801 327 503 415 1527 1568 1221 
802 25 519 26 1569 1570 36 
803 281 512 11 1571 1572 1336 
804 415 485 366 769 885 1276 
805 399 487 424 1541 1540 740 
806 398 518 504 799 1558 1560 
807 304 511 423 1573 1427 624 
808 250 519 25 1426 1569 1166 
809 23 520 24 1574 1575 34 
810 461 494 363 1576 1429 1505 
811 426 490 318 1542 1550 1556 
812 24 520 291 1575 1577 1181 
813 228 492 416 1528 1066 1273 
814 436 470 390 1507 1578 1456 
815 429 479 268 1549 847 1382 
816 436 475 313 1520 690 1508 
817 320 495 444 889 1492 1484 
818 334 513 427 1539 1579 1500 
819 478 497 291 1580 1510 1552 
820 415 503 232 1568 1554 770 
821 282 496 13 1407 1581 1328 
822 359 499 441 1120 1582 1423 
823 450 512 281 1503 1571 795 
824 355 489 281 1137 793 1432 
825 437 493 229 1567 1475 1452 
826 303 511 304 1504 1573 1343 
827 322 494 461 1522 1576 1400 
828 11 512 259 1572 965 1326 
829 446 486 204 1467 1422 602 
830 441 499 231 1582 1583 1495 
831 427 513 350 1579 1534 1373 
832 267 514 466 1559 1293 1248 
833 231 499 454 1583 1563 778 
834 13 496 453 1581 1526 1338 
835 449 491 135 1553 1459 1488 
836 333 507 452 1450 1497 1502 
837 445 520 23 1584 1574 1485 
838 283 506 470 1562 1585 1272 
839 291 520 517 1577 1586 1551 
840 517 520 445 1586 1584 1538 
841 397 497 478 1564 1580 1535 
842 336 508 465 1455 1464 1532 
843 470 506 390 1585 1441 1578 
844 26 519 473 1570 1501 1536 
$EndElements
